<svg width="25" height="26" fill="none" xmlns="http://www.w3.org/2000/svg"><path d="M23.222 1H1.89a.889.889 0 0 0 0 1.778h21.333a.889.889 0 0 0 0-1.778ZM20 4.555H3.333a1 1 0 0 0-1 1v18.444a1 1 0 0 0 1 1H20a1 1 0 0 0 1-1V5.555a1 1 0 0 0-1-1Zm-1.667 0v20.444M15.667 4.555v20.444M13 4.555v20.444M10.333 4.555v20.444M7.667 4.555v20.444M5 4.555v20.444M19.667 2.777v1.778M17 2.777v1.778m-2.667-1.778v1.778m-2.666-1.778v1.778M9 2.777v1.778M6.333 2.777v1.778M3.667 2.777v1.778" stroke="#A3A3A3" stroke-linecap="round" stroke-linejoin="round"/><path d="M23.222 4.555a.446.446 0 1 1-.003-.89.446.446 0 0 1 .003.89Zm-.444 14.223a.445.445 0 1 1 .89 0 .445.445 0 0 1-.89 0Zm0-1.333a.445.445 0 1 1 .889 0 .445.445 0 0 1-.89 0Zm0-1.334a.445.445 0 1 1 .889 0 .445.445 0 0 1-.89 0Zm0-1.333a.445.445 0 1 1 .89 0 .445.445 0 0 1-.89 0Zm0-1.334a.445.445 0 1 1 .889 0 .445.445 0 0 1-.89 0Zm0-1.333a.444.444 0 1 1 .889 0 .444.444 0 0 1-.89 0Zm0-1.333a.445.445 0 1 1 .89 0 .445.445 0 0 1-.89 0Zm0-1.334a.445.445 0 1 1 .89 0 .445.445 0 0 1-.89 0Zm0-1.333a.445.445 0 1 1 .89 0 .445.445 0 0 1-.89 0Zm0-1.333a.445.445 0 1 1 .89 0 .445.445 0 0 1-.89 0Zm0-1.334a.445.445 0 1 1 .89 0 .445.445 0 0 1-.89 0Z" fill="#A3A3A3"/><path d="M24.111 22.022h-1.777v-.889a.889.889 0 1 1 1.777 0v.889ZM22.334 1v1.778M2.778 1v1.778" stroke="#A3A3A3" stroke-linecap="round" stroke-linejoin="round"/></svg>