<svg width="28" height="28" fill="none" xmlns="http://www.w3.org/2000/svg"><path d="M24.5 18.667V9.334a2.333 2.333 0 0 0-1.167-2.019L15.167 2.65a2.333 2.333 0 0 0-2.334 0L4.667 7.315A2.333 2.333 0 0 0 3.5 9.334v9.333a2.333 2.333 0 0 0 1.167 2.018l8.166 4.667a2.333 2.333 0 0 0 2.334 0l8.166-4.667a2.334 2.334 0 0 0 1.167-2.018Z" stroke="#161314" stroke-width="2" stroke-linecap="round" stroke-linejoin="round"/><path d="M3.815 8.121 14 14.013 24.185 8.12M14 25.76V14" stroke="#161314" stroke-width="2" stroke-linecap="round" stroke-linejoin="round"/></svg>