<svg width="28" height="27" fill="none" xmlns="http://www.w3.org/2000/svg"><path d="m5.505 25.668 1.44.552c.413.159.87.159 1.283 0l.8-.307a1.782 1.782 0 0 1 1.282 0l.799.307c.413.159.87.159 1.283 0l.8-.307c.412-.159.87-.159 1.282 0l.799.307c.413.159.87.159 1.284 0l.799-.307c.413-.159.87-.159 1.282 0l.8.308a1.8 1.8 0 0 0 1.283 0l1.44-.552V7.347l-2.08-.8-1.443.554c-.413.159-.87.159-1.282 0l-1.441-.552-1.441.552c-.413.159-.87.159-1.283 0l-1.44-.552-1.441.552c-.413.159-.87.159-1.283 0l-1.44-.552-2.082.798v18.321ZM20.08 6.466V2.094m-4.151 4.372V2.094m-4.151 4.372V2.094M7.627 6.466V2.094m10.792 19.773V9.744m-4.355 12.123V9.744M9.71 21.867V9.744m-4.355-7.65h17.418m0 1.62H5.355" stroke="#A3A3A3" stroke-linecap="round" stroke-linejoin="round"/><ellipse cx="3.177" cy="3.186" rx="2.177" ry="2.186" stroke="#A3A3A3"/><ellipse cx="24.951" cy="3.186" rx="2.177" ry="2.186" stroke="#A3A3A3"/><ellipse cx="3.177" cy="3.187" rx="1.089" ry="1.093" fill="#A3A3A3"/><ellipse cx="24.951" cy="3.187" rx="1.089" ry="1.093" fill="#A3A3A3"/></svg>