<svg width="26" height="26" fill="none" xmlns="http://www.w3.org/2000/svg"><path d="M25.043 25.043V2a1 1 0 0 0-1-1H2a1 1 0 0 0-1 1v23.043m0-7.213h2.404m-1.202.002 1.202 7.213" stroke="#A3A3A3" stroke-linecap="round" stroke-linejoin="round"/><path d="M2.202 17.831c2.893-.578 6.01-6.01 6.01-6.01m2.405 1.202s-2.881 4.236-7.213 4.809m4.809 7.213-4.809-7.213m20.436 0-1.201 7.213m1.201-7.214c-2.892-.578-6.01-6.01-6.01-6.01m-2.404 1.202s2.882 4.236 7.213 4.809m-4.809 7.213 4.809-7.213m2.403-15.631c0 .466.02 4.04-.138 4.48a4.183 4.183 0 0 1-3.138 2.657h-.007a4.252 4.252 0 0 1-1.607 0h-.007a4.189 4.189 0 0 1-2.222-1.197 1.274 1.274 0 0 0-.904-.388h-.043a1.297 1.297 0 0 0-.904.388 4.188 4.188 0 0 1-2.221 1.196h-.008a4.13 4.13 0 0 1-.803.077h-.02a4.13 4.13 0 0 1-.802-.077h-.007a4.188 4.188 0 0 1-2.222-1.196 1.274 1.274 0 0 0-.904-.388h-.043a1.296 1.296 0 0 0-.904.388 4.189 4.189 0 0 1-2.221 1.196h-.008a4.253 4.253 0 0 1-1.607 0h-.01c-.89-.17-1.7-.622-2.304-1.284a4.019 4.019 0 0 1-.827-1.364C1 6.25 1 2.667 1 2.2" stroke="#A3A3A3" stroke-linecap="round" stroke-linejoin="round"/><path d="M25.042 2.201c0 .466.02 7.647-.138 8.086a4.183 4.183 0 0 1-3.138 2.657h-.007a4.253 4.253 0 0 1-1.607 0h-.007a4.188 4.188 0 0 1-2.222-1.197 1.274 1.274 0 0 0-.904-.387h-.043a1.297 1.297 0 0 0-.904.388 4.187 4.187 0 0 1-2.221 1.196h-.008a4.126 4.126 0 0 1-.803.076h-.02a4.074 4.074 0 0 1-.802-.076h-.007a4.187 4.187 0 0 1-2.222-1.197 1.274 1.274 0 0 0-.904-.387h-.043a1.297 1.297 0 0 0-.904.388 4.188 4.188 0 0 1-2.221 1.196h-.008a4.253 4.253 0 0 1-1.607 0h-.01c-.89-.17-1.7-.622-2.304-1.285a4.02 4.02 0 0 1-.827-1.364C1 9.857 1 2.667 1 2.201" stroke="#A3A3A3" stroke-linecap="round" stroke-linejoin="round"/><path stroke="#A3A3A3" d="M17.128 1v10.819M8.713 1v10.819"/><path d="M8.213 25.043c-.878.13-3.062-.296-3.062-.296-1.146-.305-.594.547-1.472.673S1.876 24.917 1 25.043m16.83 0c.878.13 3.062-.296 3.062-.296 1.146-.305.594.547 1.472.673s1.802-.503 2.679-.377" stroke="#A3A3A3" stroke-linecap="round" stroke-linejoin="round"/></svg>