<svg width="26" height="26" fill="none" xmlns="http://www.w3.org/2000/svg"><path d="M23.922.992H2a1 1 0 0 0-1 1v.669a1 1 0 0 0 1 1h21.922a1 1 0 0 0 1-1v-.669a1 1 0 0 0-1-1Zm-.304 3.002-.471 1.446m-1.905 0v18.65c0 .507.412.92.92.92v0a.92.92 0 0 0 .92-.92V6.44a1 1 0 0 0-1-1H3.718a1 1 0 0 1-.98-.796l-.135-.65" stroke="#A3A3A3" stroke-linecap="round" stroke-linejoin="round"/><path d="M2.84 5.44v18.649c0 .508.412.92.92.92v0a.92.92 0 0 0 .92-.92V5.439m0 3.559h16.562M4.68 12.557h16.562M4.68 16.113h16.562M4.68 19.672h16.562M4.68 23.23h16.562M23.082.992v2.669M2.84.992v2.669m1.84-1.335h1.38" stroke="#A3A3A3" stroke-linecap="round" stroke-linejoin="round"/></svg>