<svg width="26" height="26" fill="none" xmlns="http://www.w3.org/2000/svg"><path d="M23.552 18.373a.435.435 0 0 1 .433-.434.432.432 0 0 1 .432.434.435.435 0 0 1-.432.434.432.432 0 0 1-.433-.433Zm0-1.302a.435.435 0 0 1 .433-.434.432.432 0 0 1 .432.434.435.435 0 0 1-.432.434.432.432 0 0 1-.433-.434Zm0-1.302a.435.435 0 0 1 .433-.434.432.432 0 0 1 .432.434.435.435 0 0 1-.432.434.432.432 0 0 1-.433-.434Zm0-1.302a.435.435 0 0 1 .433-.434.432.432 0 0 1 .432.434.435.435 0 0 1-.432.434.432.432 0 0 1-.433-.434Zm0-1.302a.435.435 0 0 1 .433-.434.432.432 0 0 1 .432.434.435.435 0 0 1-.432.434.432.432 0 0 1-.433-.434Zm0-1.302a.435.435 0 0 1 .433-.434.432.432 0 0 1 .432.434.435.435 0 0 1-.432.434.432.432 0 0 1-.433-.434Zm0-1.302a.435.435 0 0 1 .433-.434.432.432 0 0 1 .432.434.435.435 0 0 1-.432.434.432.432 0 0 1-.433-.434Zm0-1.303a.435.435 0 0 1 .433-.434.432.432 0 0 1 .432.434.435.435 0 0 1-.432.435.432.432 0 0 1-.433-.435Zm0-1.302a.435.435 0 0 1 .433-.434.432.432 0 0 1 .432.434.435.435 0 0 1-.432.434.432.432 0 0 1-.433-.434Zm0-1.302a.435.435 0 0 1 .433-.434.432.432 0 0 1 .432.434.435.435 0 0 1-.432.434.432.432 0 0 1-.433-.434Zm0-1.302a.435.435 0 0 1 .433-.434.432.432 0 0 1 .432.434.435.435 0 0 1-.432.434.432.432 0 0 1-.433-.434Z" fill="#A3A3A3"/><path d="M24.873 21.784h-1.762v-.87c0-.231.093-.453.258-.616a.886.886 0 0 1 1.246 0 .865.865 0 0 1 .258.616v.87ZM23.8 4.482H1.964m0-3.482H23.8M4.694 1c-.232 0-.454.183-.618.51-.164.327-.256.77-.256 1.231 0 .462.092.905.256 1.231.164.327.386.51.618.51M23.8 1c.232 0 .454.183.617.51.164.327.256.77.256 1.231 0 .462-.092.905-.256 1.231-.163.327-.386.51-.617.51M1.873 1c-.231 0-.454.183-.617.51C1.092 1.837 1 2.28 1 2.741c0 .462.092.905.256 1.231.163.327.386.51.617.51M21.07 1c.232 0 .454.183.618.51.164.327.256.77.256 1.231 0 .462-.092.905-.256 1.231-.164.327-.386.51-.618.51m.6.218V24a1 1 0 0 1-1 1H4.285a1 1 0 0 1-1-1V4.7m.001 17.085h18.383" stroke="#A3A3A3" stroke-linecap="round" stroke-linejoin="round"/></svg>