<svg width="22" height="22" fill="none" xmlns="http://www.w3.org/2000/svg"><path fill-rule="evenodd" clip-rule="evenodd" d="M11 22c6.075 0 11-4.925 11-11S17.075 0 11 0 0 4.925 0 11s4.925 11 11 11Zm3.701-15.796c.313-.125.615-.102.808.061.138.117.28.355.178.822l-1.683 8.746a.942.942 0 0 1-.487.497.812.812 0 0 1-.31.06c-.14 0-.287-.033-.44-.101l-.053-.032L10.46 14.5l-1.396 1.294a.524.524 0 0 1-.509.091c-.22-.066-.345-.392-.422-.64-.114-.366-.599-1.978-.792-2.621l-.042-.14-2.282-.781c-.057-.021-.524-.201-.577-.636-.06-.483.52-.7.587-.723.366-.157 9.344-4.008 9.673-4.14ZM8.543 14.85l.77-2.053 4.364-4.877-5.904 4.364.77 2.566Z" fill="#161314"/></svg>