<svg width="23" height="23" fill="none" xmlns="http://www.w3.org/2000/svg"><path fill-rule="evenodd" clip-rule="evenodd" d="M11.2 22.406c6.075 0 11-4.925 11-11s-4.925-11-11-11-11 4.925-11 11 4.925 11 11 11ZM14.901 6.61c.313-.125.615-.102.808.061.138.117.28.355.178.822l-1.683 8.746a.941.941 0 0 1-.487.497.813.813 0 0 1-.31.06c-.14 0-.287-.033-.44-.1l-.053-.033-2.253-1.757-1.396 1.295a.525.525 0 0 1-.509.09c-.22-.066-.345-.392-.422-.64-.114-.366-.599-1.98-.792-2.621l-.041-.14-2.283-.781c-.057-.02-.524-.201-.577-.636-.06-.483.52-.7.587-.722.366-.158 9.345-4.009 9.673-4.14Zm-6.157 8.646.77-2.053 4.363-4.877-5.903 4.364.77 2.566Z" fill="#CECECE"/></svg>