<svg width="211" height="48" fill="none" xmlns="http://www.w3.org/2000/svg"><path fill-rule="evenodd" clip-rule="evenodd" d="M39.3 12.908h6.082v32.18c-1.943-.258-4.115-.47-6.082-.652V12.908Z" fill="#FB5D49"/><path fill-rule="evenodd" clip-rule="evenodd" d="M33.236 7.684h6.277v36.752a157.453 157.453 0 0 0-6.277-.435V7.684Z" fill="#EC1831"/><path fill-rule="evenodd" clip-rule="evenodd" d="M45.381 12.908h6.159v33.134a149.566 149.566 0 0 0-6.159-.962V12.908Z" fill="#FEA477"/><path fill-rule="evenodd" clip-rule="evenodd" d="M13.069 12.906H6.985V45.1c1.945-.261 4.117-.477 6.084-.653v-31.54Z" fill="#C4E022"/><path fill-rule="evenodd" clip-rule="evenodd" d="M19.13 7.68h-6.274v36.76a149.82 149.82 0 0 1 6.275-.434V7.68Z" fill="#30A66B"/><path fill-rule="evenodd" clip-rule="evenodd" d="M18.919.78h14.53V44a147.109 147.109 0 0 0-7.266-.184c-2.438-.001-4.86.06-7.264.183V.78Z" fill="#4F1F31"/><path d="M23.426 10.16h-1.36v2.588h1.36V10.16Z" fill="#161314"/><path d="M23.683 12.727h-1.875v.158h1.875v-.158Zm3.162-1.289h-1.36v2.587h1.36v-2.588Z" fill="#161314"/><path d="M27.102 14.004h-1.875v.159h1.875v-.16Z" fill="#161314"/><path d="M30.297 12.752h-1.359v2.587h1.36v-2.587Z" fill="#DE822A"/><path d="M30.554 15.316H28.68v.16h1.875v-.16Zm-7.128-.392h-1.36v2.587h1.36v-2.587Z" fill="#161314"/><path d="M23.683 17.492h-1.875v.159h1.875v-.159Zm3.16-1.282h-1.36v2.588h1.36v-2.587Z" fill="#161314"/><path d="M27.102 18.775h-1.875v.16h1.875v-.16Zm3.195-1.654h-1.359v2.588h1.36V17.12Z" fill="#161314"/><path d="M30.557 19.688h-1.875v.158h1.875v-.159Zm-7.129 4.782H22.07v2.588h1.36v-2.587Z" fill="#161314"/><path d="M23.686 27.035H21.81v.159h1.875v-.159Zm3.161-1.291h-1.36v2.587h1.36v-2.587Z" fill="#161314"/><path d="M27.107 28.313H25.23v.158h1.876v-.159ZM30.3 27.06h-1.36v2.588h1.36V27.06Z" fill="#161314"/><path d="M30.559 29.627h-1.875v.159h1.875v-.159Z" fill="#161314"/><path d="M23.428 29.234H22.07v2.588h1.36v-2.588Z" fill="#DE822A"/><path d="M23.686 31.803H21.81v.159h1.875v-.16Zm3.159-1.283h-1.36v2.587h1.36V30.52Z" fill="#161314"/><path d="M27.104 33.086h-1.875v.159h1.875v-.16Zm3.196-1.654h-1.36v2.587h1.36v-2.587Z" fill="#161314"/><path d="M30.559 33.998h-1.875v.159h1.875v-.159Zm-7.133-14.285h-1.36V22.3h1.36v-2.587Z" fill="#161314"/><path d="M23.683 22.28h-1.875v.158h1.875v-.159Zm3.162-1.292h-1.36v2.588h1.36v-2.588Z" fill="#161314"/><path d="M27.104 23.557h-1.875v.158h1.875v-.158Zm3.198-1.252h-1.36v2.587h1.36v-2.587Z" fill="#161314"/><path d="M30.559 24.871h-1.875v.159h1.875v-.159Zm-7.133 9.169h-1.36v2.587h1.36v-2.588Z" fill="#161314"/><path d="M23.686 36.607H21.81v.16h1.875v-.16Zm3.159-1.291h-1.36v2.588h1.36v-2.588Z" fill="#161314"/><path d="M27.104 37.883h-1.875v.159h1.875v-.16Zm3.193-1.253h-1.359v2.588h1.36v-2.587Z" fill="#161314"/><path d="M30.557 39.195h-1.875v.16h1.875v-.16ZM23.424 5.402h-1.359V7.99h1.36V5.402Z" fill="#161314"/><path d="M23.681 7.97h-1.875v.16h1.875v-.16Zm3.162-1.29h-1.36v2.587h1.36V6.68Z" fill="#161314"/><path d="M27.102 9.246h-1.875v.159h1.875v-.159Zm3.195-1.248h-1.359v2.587h1.36V7.998Z" fill="#161314"/><path d="M30.557 10.563h-1.875v.158h1.875v-.159Z" fill="#161314"/><path d="M33.83.78H18.484v1.63H33.83V.78Z" fill="#4F1F31"/><path d="M33.449 2.41h-14.53v.714h14.53V2.41Z" fill="#161314"/><path fill-rule="evenodd" clip-rule="evenodd" d="M6.985 12.906H.827v33.156c2.039-.365 4.092-.685 6.158-.962V12.906Z" fill="#E3F383"/><path d="M73.958 21.62c0 1.319-.786 2.552-1.984 2.552a1.612 1.612 0 0 1-.863-.288 1.665 1.665 0 0 1-.58-.715c1.469-.626 1.591-3.026-.316-3.026-2.133 0-4.362 4.807-4.362 10.042 0 2.96.98 5.413 3.453 5.413a8.78 8.78 0 0 0 4.382-1.318.646.646 0 0 1 .3.237.67.67 0 0 1 .118.37.774.774 0 0 1-.218.547 8.263 8.263 0 0 1-2.732 1.856 8.094 8.094 0 0 1-3.222.623c-3.866 0-5.528-3.455-5.528-7.313 0-6.389 3.672-12.178 8.15-12.178 2.371.013 3.402 1.668 3.402 3.198Z" fill="#161314"/><path d="M74.77 27.984c.097-.403 0-.66-.244-.66-.123 0-.271.1-.49.304a.91.91 0 0 1-.308-.69.928.928 0 0 1 .308-.688 4.396 4.396 0 0 1 2.738-1.207c.883 0 1.398.429 1.18 1.378l-1.489 7.148c-.219 1.028.097 1.477.831 1.477.448-.034.883-.17 1.274-.399.39-.228.725-.542.981-.92l1.47-7.095a1.98 1.98 0 0 1 .734-1.188c.38-.29.849-.428 1.32-.388a2.04 2.04 0 0 1 1.148.33l-1.714 8.288c-.29 1.404.096 1.853.734 1.853a4.066 4.066 0 0 0 2.578-1.253.647.647 0 0 1 .3.237.67.67 0 0 1 .118.37.901.901 0 0 1-.219.547c-1.153 1.319-2.918 2.48-4.24 2.48-1.198 0-2.396-.66-2.274-2.83-.98 1.63-2.178 2.83-3.576 2.83-2.719 0-2.719-2.928-2.3-4.808l1.14-5.116Z" fill="#161314"/><path d="M89.828 27.581c.998-1.476 2.222-2.505 3.62-2.505 1.006 0 2.127.804 2.056 2.585 1.031-1.504 2.255-2.585 3.673-2.585 1.101 0 2.693.752 2.055 3.686l-1.198 5.763c-.149.725.174 1.022.644 1.022a4.06 4.06 0 0 0 2.577-1.253.65.65 0 0 1 .301.237.666.666 0 0 1 .118.37.86.86 0 0 1-.219.547c-1.153 1.319-2.79 2.479-4.433 2.479-1.224 0-2.52-.66-1.933-3.554l1.025-4.985c.2-.804.225-1.477-.587-1.477a2.837 2.837 0 0 0-1.185.337 2.904 2.904 0 0 0-.941.81l-1.52 7.293a1.983 1.983 0 0 1-.736 1.188c-.378.29-.848.428-1.32.388a2.127 2.127 0 0 1-1.153-.323l1.714-8.216c.174-.804.225-1.477-.587-1.477a2.89 2.89 0 0 0-1.274.392c-.39.229-.723.546-.974.927l-1.489 7.121a1.983 1.983 0 0 1-.735 1.188 1.9 1.9 0 0 1-1.32.388 2.108 2.108 0 0 1-1.154-.323l2.01-9.62c.097-.403 0-.66-.244-.66-.123 0-.27.1-.49.304a.908.908 0 0 1-.308-.69.928.928 0 0 1 .308-.688 4.396 4.396 0 0 1 2.739-1.207c.882 0 1.398.429 1.179 1.378l-.22 1.16Z" fill="#161314"/><path d="M104.344 27.984c.097-.403 0-.66-.245-.66-.122 0-.271.1-.49.304a.931.931 0 0 1 0-1.378 4.4 4.4 0 0 1 2.745-1.207c.876 0 1.366.429 1.173 1.378l-1.495 7.115c-.219 1.028.097 1.477.831 1.477.448-.034.883-.17 1.274-.399a3.04 3.04 0 0 0 .981-.92l1.495-7.042c.095-.475.356-.898.735-1.188.379-.29.849-.428 1.32-.388a2.08 2.08 0 0 1 1.154.33l-1.714 8.288c-.271 1.279.045 1.826.535 1.826.489 0 1.005-.296 1.372-1.2.464 0 .735.25.735.66 0 1.754-2.011 2.927-3.377 2.927-1.204 0-2.403-.66-2.28-2.828-.98 1.628-2.178 2.828-3.57 2.828-2.719 0-2.719-2.927-2.307-4.807l1.128-5.116Zm43.872 6.308a.666.666 0 0 1 .419.607.713.713 0 0 1-.226.547 8.066 8.066 0 0 1-5.457 2.48c-3.183 0-4.452-3.008-4.452-6.64.001-1.27.131-2.536.386-3.779l-2.345 4.154-.954 4.662a2.042 2.042 0 0 1-.758 1.207 1.96 1.96 0 0 1-1.348.395 2.141 2.141 0 0 1-1.18-.323l2.062-9.943-2.815 5.084c-1.25 2.98-3.261 5.182-5.851 5.182-2.132 0-3.866-.6-3.866-3.382a2.079 2.079 0 0 1 .096-.851 2.028 2.028 0 0 1 1.117-1.223c.261-.111.541-.164.823-.155a1.266 1.266 0 0 1 1.025.554 2.488 2.488 0 0 0-.316 1.226c0 1.352.541 2.229 1.54 2.229 2.622 0 4.285-4.985 4.285-11.17 0-2.934-.535-4.813-1.759-4.813-1.373 0-2.423 1.075-3.183 2.756a.902.902 0 0 1-.629-.478.934.934 0 0 1-.016-.801 4.774 4.774 0 0 1 1.65-2.263 4.601 4.601 0 0 1 2.609-.915c2.719 0 3.969 2.505 3.969 6.488a19.24 19.24 0 0 1-.444 4.081l2.352-4.26.979-4.66c.102-.484.371-.913.759-1.208a1.958 1.958 0 0 1 1.348-.395 2.18 2.18 0 0 1 1.173.33l-2.107 10.14 2.867-5.11c1.288-3.052 3.331-5.406 5.973-5.406 4.677 0 3.917 6.013 1.32 6.013a1.632 1.632 0 0 1-.846-.297 1.689 1.689 0 0 1-.571-.705c1.243-.752 1.366-3.363-.245-3.363-4.136 0-6.759 15.284-1.289 15.284a8.554 8.554 0 0 0 3.905-1.279Z" fill="#161314"/><path d="M157.745 33.693c-.27 1.28.045 1.827.535 1.827.49 0 1.005-.297 1.372-1.2.464 0 .735.25.735.659 0 1.754-2.01 2.927-3.376 2.927-1.154 0-2.307-.547-2.281-2.525-1.025 1.477-2.326 2.525-3.718 2.525-2.545 0-3.06-2.637-3.06-4.206 0-4.385 2.764-8.744 6.166-8.744a3.602 3.602 0 0 1 2.525.825 2.122 2.122 0 0 1 1.663-.726c.407-.006.808.109 1.153.33l-1.714 8.308Zm-2.964.08 1.373-6.72a3.422 3.422 0 0 0-1.154-.198c-2.963 0-4.014 3.957-4.014 6.686 0 1.253.561 1.807 1.321 1.807a3.482 3.482 0 0 0 1.403-.515 3.567 3.567 0 0 0 1.071-1.06Z" fill="#161314"/><path d="m167.958 33.897 1.443-6.943c-.49 0-1.005.052-1.514.099-.934 3.857-1.888 6.363-2.796 7.971-1.102 1.978-2.301 2.875-3.222 2.902-.921.026-1.74-.976-1.74-2.803 0-1.206.812-1.556 1.714-1.556a1.9 1.9 0 0 1 1.005.35 5.016 5.016 0 0 0-.418 1.978c1.288-.805 2.474-2.104 4.213-8.67-1.288.203-2.422.526-2.912 1.1a1.947 1.947 0 0 1-.515-1.272c0-1.556 1.321-2.157 2.719-2.157 1.54 0 6.804.198 6.604 1.2l-1.566 7.616c-.29 1.405.103 1.853.735 1.853a4.066 4.066 0 0 0 2.577-1.253.65.65 0 0 1 .301.238.666.666 0 0 1 .118.369.9.9 0 0 1-.219.547c-1.154 1.319-2.913 2.48-4.24 2.48-1.707-.02-2.931-.72-2.287-4.05Z" fill="#161314"/><path d="M189.864 29.46c0 3.731-2.622 8.466-6.443 8.466-2.519 0-3.602-2.077-3.602-4.431 0-.709.082-1.415.245-2.103a5.605 5.605 0 0 1-2.693.77l-.876 4.188c-.082.467-.33.887-.697 1.178a1.844 1.844 0 0 1-1.288.398 2.128 2.128 0 0 1-1.153-.323l2.036-9.62c.071-.403 0-.66-.245-.66-.122 0-.27.1-.49.303a.914.914 0 0 1-.308-.689.932.932 0 0 1 .308-.689 4.396 4.396 0 0 1 2.739-1.206c.883 0 1.398.428 1.179 1.378l-.876 4.101a6.946 6.946 0 0 0 2.738-.481c.979-2.704 3.015-5.058 5.631-5.058s3.795 2.025 3.795 4.477Zm-6.926 3.23c0 2.21.734 3.06 1.591 3.06 1.933 0 3.499-3.857 3.499-6.488 0-1.352-.419-2.38-1.417-2.38-2.23 0-3.673 3.356-3.673 5.808Z" fill="#161314"/><path d="M193.73 37.351c.08-.455.129-.916.148-1.378a2.197 2.197 0 0 0-.601-1.7 2.092 2.092 0 0 0-1.648-.653 1.158 1.158 0 0 1 .159-.99 1.087 1.087 0 0 1 .866-.469c1.591.001 2.912-2.05 2.912-3.606a1.601 1.601 0 0 0-.402-1.27 1.54 1.54 0 0 0-1.209-.503 2.704 2.704 0 0 0-.979.197 1.512 1.512 0 0 0-.052.502c.029.563.163 1.116.393 1.628a1.478 1.478 0 0 1-.979.35 1.535 1.535 0 0 1-1.091-.546 1.61 1.61 0 0 1-.378-1.182c0-1.319 1.153-2.829 4.207-2.829 2.107 0 3.383 1.398 3.383 3.053 0 2.48-1.591 4.313-4.04 5.011a3.099 3.099 0 0 1 1.664 1.166c.412.568.627 1.26.611 1.966a16.873 16.873 0 0 0 2.867-1.978.811.811 0 0 1 .216.974.811.811 0 0 1-.216.28 22.544 22.544 0 0 1-3.041 2.083 23.414 23.414 0 0 1-2.249 6.91c-1.102 1.853-2.577 3.033-4.626 3.033a2.734 2.734 0 0 1-1.153-.207 2.776 2.776 0 0 1-.968-.672 2.865 2.865 0 0 1-.614-1.02 2.919 2.919 0 0 1-.152-1.187c0-3.204 3.75-5.638 6.972-6.963Zm-.367 1.701c-2.713 1.102-4.968 3.132-4.968 4.913-.018.291.078.578.266.798.188.22.454.355.739.375.954 0 1.74-.66 2.397-1.8a22 22 0 0 0 1.591-4.286h-.025Z" fill="#161314"/><path d="M200.541 27.983c.096-.402 0-.66-.245-.66-.123 0-.271.1-.49.304a.928.928 0 0 1 0-1.378 4.397 4.397 0 0 1 2.745-1.207c.876 0 1.366.429 1.173 1.378l-1.495 7.115c-.219 1.029.096 1.477.831 1.477.448-.034.883-.17 1.273-.398a3.05 3.05 0 0 0 .982-.92l1.469-7.096c.095-.474.356-.897.735-1.187.379-.29.849-.429 1.32-.389a2.08 2.08 0 0 1 1.154.33l-1.714 8.289c-.271 1.279.045 1.826.535 1.826.489 0 1.005-.297 1.372-1.2.464 0 .735.25.735.66 0 1.753-2.004 2.927-3.377 2.927-1.198 0-2.403-.66-2.281-2.829-.979 1.629-2.177 2.829-3.569 2.829-2.719 0-2.719-2.928-2.3-4.807l1.147-5.064Z" fill="#161314"/></svg>