<svg width="23" height="23" fill="none" xmlns="http://www.w3.org/2000/svg"><path d="M11.2.406c-6.075 0-11 4.926-11 11 0 2.064.58 3.988 1.569 5.638l-1.47 5.362 5.476-1.437a10.94 10.94 0 0 0 5.425 1.437c6.075 0 11-4.925 11-11s-4.925-11-11-11Zm-3.765 5.87c.179 0 .362-.002.521.006.196.005.41.02.614.471.243.537.772 1.885.84 2.021.068.137.116.298.021.477-.09.183-.136.294-.268.456-.137.158-.286.354-.41.473-.137.136-.278.286-.12.558.157.273.705 1.165 1.515 1.886 1.04.93 1.918 1.215 2.19 1.351.274.137.432.116.59-.068.162-.178.681-.792.865-1.065.178-.273.36-.226.608-.136.252.09 1.591.75 1.864.886.273.137.452.204.521.315.07.115.07.66-.156 1.297-.226.635-1.338 1.25-1.836 1.292-.504.047-.974.227-3.271-.678-2.773-1.092-4.52-3.931-4.657-4.114-.137-.18-1.11-1.477-1.11-2.815 0-1.343.704-2 .95-2.274.252-.273.546-.34.73-.34Z" fill="#CECECE"/></svg>