<svg width="28" height="28" fill="none" xmlns="http://www.w3.org/2000/svg"><path d="M17.358 5.842a6.068 6.068 0 0 1 3.127 1.66 6.049 6.049 0 0 1 1.664 3.121M17.36 1a10.924 10.924 0 0 1 6.508 3.12A10.886 10.886 0 0 1 27 10.61m-1.212 9.66v3.631a2.417 2.417 0 0 1-1.649 2.304 2.43 2.43 0 0 1-.995.117 24.032 24.032 0 0 1-10.467-3.716A23.627 23.627 0 0 1 5.4 15.344 23.926 23.926 0 0 1 1.677 4.85a2.417 2.417 0 0 1 1.436-2.432 2.43 2.43 0 0 1 .977-.207h3.64a2.428 2.428 0 0 1 2.425 2.083 15.52 15.52 0 0 0 .85 3.401 2.417 2.417 0 0 1-.546 2.554l-1.54 1.538a19.387 19.387 0 0 0 7.276 7.262l1.54-1.537a2.427 2.427 0 0 1 2.56-.545c1.1.41 2.243.694 3.407.848a2.427 2.427 0 0 1 2.087 2.457Z" stroke="#000" stroke-width="2" stroke-linecap="round" stroke-linejoin="round"/></svg>