<svg width="32" height="32" fill="none" xmlns="http://www.w3.org/2000/svg"><path d="m24.4 19-3.6.6M1.6 19l3.6.6m19.424 8.14V6.4M1.511 27.74V6.4m21.954 11.959c-1.026-1.793-1.7-11.959-1.7-11.959M2.67 18.359C3.698 16.566 4.37 6.4 4.37 6.4m18.692 13.032-1.065 7.624M3.074 19.432l1.065 7.624m18.398-8.438C20.357 17.148 18.911 6.4 18.911 6.4M3.6 18.618C5.783 17.148 7.23 6.4 7.23 6.4m8.82 0s2.202 10.967 5.514 12.452M10.088 6.4S7.884 17.367 4.572 18.852m13.6 8.732 3.344-7.809M7.965 27.584 4.62 19.775" stroke="#A3A3A3" stroke-linecap="round" stroke-linejoin="round"/><path d="M13.191 6.4s3.055 11.386 7.619 12.726M12.945 6.4S9.89 17.786 5.325 19.126m12.847 8.459 3.825-.523c.656.17.446.738 1.102.907.657.17.869-.398 1.525-.229m-16.659-.155c-.658.175-3.826-.523-3.826-.523-.657.17-.445.738-1.103.907-.657.17-.868-.398-1.525-.229m6.454-.156L4.62 19.775" stroke="#A3A3A3" stroke-linecap="round" stroke-linejoin="round"/><path d="M7.965 27.585c-.658.175-3.826-.523-3.826-.523-.657.17-.445.738-1.103.907-.657.17-.868-.398-1.525-.229M24.422 4H1.89a.889.889 0 0 0 0 1.778h22.533a.889.889 0 0 0 0-1.778Z" stroke="#A3A3A3" stroke-linecap="round" stroke-linejoin="round"/></svg>