<svg width="28" height="28" fill="none" xmlns="http://www.w3.org/2000/svg"><path d="M25.691.666H1.988a.988.988 0 0 0 0 1.975H25.69a.988.988 0 0 0 0-1.975ZM24.244 2.64l2.47 2.47M3.504 2.64l-2.47 2.47M24.704.666v1.975M2.975.666v1.975m23.739 2.47-1.976 2.47H3.01L1.035 5.11h25.679Z" stroke="#A3A3A3" stroke-linecap="round" stroke-linejoin="round"/><path d="m3.01 7.58-1.975 2.47h25.679l-1.976-2.47" stroke="#A3A3A3" stroke-linecap="round" stroke-linejoin="round"/><path d="m26.714 10.049-1.976 2.469H3.01l-1.975-2.47" stroke="#A3A3A3" stroke-linecap="round" stroke-linejoin="round"/><path d="m24.738 12.518 1.976 2.469H1.034l1.976-2.47" stroke="#A3A3A3" stroke-linecap="round" stroke-linejoin="round"/><path d="m26.714 14.986-1.976 2.47H3.01l-1.975-2.47m23.703 2.471 1.976 2.47H1.034l1.976-2.47" stroke="#A3A3A3" stroke-linecap="round" stroke-linejoin="round"/><path d="m26.714 19.926-1.976 2.469H3.01l-1.975-2.47" stroke="#A3A3A3" stroke-linecap="round" stroke-linejoin="round"/><path d="m24.738 22.395 1.976 2.469H1.034l1.976-2.47" stroke="#A3A3A3" stroke-linecap="round" stroke-linejoin="round"/><path d="m26.714 24.863-1.976 2.47H3.01l-1.975-2.47" stroke="#A3A3A3" stroke-linecap="round" stroke-linejoin="round"/></svg>