<svg width="24" height="26" fill="none" xmlns="http://www.w3.org/2000/svg"><path d="M21.6 1H2a1 1 0 0 0-1 1v22a1 1 0 0 0 1 1h19.6a1 1 0 0 0 1-1V2a1 1 0 0 0-1-1Z" stroke="#A3A3A3" stroke-linecap="round" stroke-linejoin="round"/><path d="M19.15 5.8H4.45v16.8h14.7V5.8Z" stroke="#A3A3A3" stroke-linecap="round" stroke-linejoin="round"/><path d="M19.15 17.8H11.8v4.8h7.35v-4.8Zm0-2.4H4.45v2.4h14.7v-2.4Zm0-2.4H4.45v2.4h14.7V13Zm0-2.4H4.45V13h14.7v-2.4Z" stroke="#A3A3A3" stroke-linecap="round" stroke-linejoin="round"/><path d="M19.15 8.201H4.45v2.4h14.7v-2.4ZM11.8 17.8H4.45v4.8h7.35v-4.8Zm8.4-14.4H3.4v2.4h16.8V3.4Z" stroke="#A3A3A3" stroke-linecap="round" stroke-linejoin="round"/></svg>