<svg width="29" height="28" fill="none" xmlns="http://www.w3.org/2000/svg"><path d="M11.334 24.89a.972.972 0 1 0 0-1.945.972.972 0 0 0 0 1.945Zm10.694 0a.972.972 0 1 0 0-1.945.972.972 0 0 0 0 1.945Z" stroke="#A3A3A3" stroke-width="2" stroke-linecap="round" stroke-linejoin="round"/><path d="m8.417 9.334 1.633 8.157a1.945 1.945 0 0 0 1.945 1.565h9.45a1.945 1.945 0 0 0 1.944-1.565l1.556-8.157H8.417Z" fill="#A3A3A3"/><path d="M3.556 4.473h3.889L10.05 17.49m0 0a1.945 1.945 0 0 0 1.945 1.565h9.45a1.945 1.945 0 0 0 1.944-1.565l1.556-8.157H8.417l1.633 8.157Z" stroke="#A3A3A3" stroke-width="2" stroke-linecap="round" stroke-linejoin="round"/></svg>