<svg width="19" height="22" fill="none" xmlns="http://www.w3.org/2000/svg"><path fill-rule="evenodd" clip-rule="evenodd" d="M13.833 5.814c0 2.291-1.828 4.148-4.083 4.148S5.666 8.105 5.666 5.814c0-2.29 1.829-4.148 4.084-4.148s4.083 1.857 4.083 4.148Zm4.083 12.445v2.074H1.583v-2.074c0-1.1.43-2.156 1.196-2.934a4.051 4.051 0 0 1 2.887-1.214h8.167c1.083 0 2.122.436 2.887 1.214a4.182 4.182 0 0 1 1.196 2.934Z" fill="#A3A3A3"/><path d="M17.916 20.333v1a1 1 0 0 0 1-1h-1Zm-16.333 0h-1a1 1 0 0 0 1 1v-1Zm1.196-5.008-.713-.701.713.701Zm13.941 0 .713-.701-.713.701Zm-6.97-4.363c2.822 0 5.083-2.32 5.083-5.148h-2c0 1.754-1.395 3.148-3.083 3.148v2ZM4.666 5.814c0 2.829 2.261 5.148 5.084 5.148v-2c-1.688 0-3.084-1.394-3.084-3.148h-2ZM9.75.666c-2.823 0-5.084 2.32-5.084 5.148h2c0-1.753 1.396-3.148 3.084-3.148v-2Zm5.083 5.148c0-2.828-2.261-5.148-5.083-5.148v2c1.688 0 3.083 1.395 3.083 3.148h2Zm4.083 14.519v-2.074h-2v2.074h2Zm-17.333 1h16.333v-2H1.583v2Zm-1-3.074v2.074h2v-2.074h-2Zm1.483-3.635a5.182 5.182 0 0 0-1.483 3.635h2c0-.84.329-1.643.909-2.232l-1.426-1.403Zm3.6-1.514a5.051 5.051 0 0 0-3.6 1.514l1.426 1.403a3.052 3.052 0 0 1 2.174-.917v-2Zm8.167 0H5.666v2h8.167v-2Zm3.6 1.514a5.051 5.051 0 0 0-3.6-1.514v2c.813 0 1.595.328 2.175.917l1.425-1.403Zm1.483 3.635c0-1.36-.532-2.668-1.483-3.635l-1.425 1.403c.58.59.908 1.392.908 2.232h2Z" fill="#A3A3A3"/></svg>