<svg width="211" height="48" viewBox="0 0 211 48" fill="none" xmlns="http://www.w3.org/2000/svg">
<path fill-rule="evenodd" clip-rule="evenodd" d="M39.3003 12.9082H45.3822V45.0885C43.4391 44.8296 41.2667 44.6185 39.3003 44.4357V12.9082Z" fill="#FB5D49"/>
<path fill-rule="evenodd" clip-rule="evenodd" d="M33.2358 7.68359H39.5131V44.436C37.5021 44.251 35.266 44.103 33.2358 44.0007V7.68359Z" fill="#EC1831"/>
<path fill-rule="evenodd" clip-rule="evenodd" d="M45.3813 12.9082H51.5397V46.0417C49.4982 45.679 47.4455 45.3584 45.3813 45.0798V12.9082Z" fill="#FEA477"/>
<path fill-rule="evenodd" clip-rule="evenodd" d="M13.0689 12.9062H6.98486V45.0996C8.93005 44.8385 11.1025 44.6231 13.0689 44.4468V12.9062Z" fill="#C4E022"/>
<path fill-rule="evenodd" clip-rule="evenodd" d="M19.1306 7.67969H12.8555V44.4407C14.8665 44.2558 17.1026 44.1034 19.1306 44.0055V7.67969Z" fill="#30A66B"/>
<path fill-rule="evenodd" clip-rule="evenodd" d="M18.9185 0.779297H33.4487V43.9991C31.0422 43.8786 28.6202 43.8177 26.1825 43.8163C23.7449 43.8148 21.3235 43.8757 18.9185 43.9991V0.779297Z" fill="#4F1F31"/>
<path d="M23.426 10.1602H22.0669V12.7476H23.426V10.1602Z" fill="#161314"/>
<path d="M23.6832 12.7266H21.8081V12.8853H23.6832V12.7266Z" fill="#161314"/>
<path d="M26.8449 11.4375H25.4858V14.0249H26.8449V11.4375Z" fill="#161314"/>
<path d="M27.1017 14.0039H25.2266V14.1627H27.1017V14.0039Z" fill="#161314"/>
<path d="M30.2971 12.752H28.938V15.3394H30.2971V12.752Z" fill="#DE822A"/>
<path d="M30.5543 15.3164H28.6792V15.4752H30.5543V15.3164Z" fill="#161314"/>
<path d="M23.426 14.9238H22.0669V17.5112H23.426V14.9238Z" fill="#161314"/>
<path d="M23.6832 17.4922H21.8081V17.651H23.6832V17.4922Z" fill="#161314"/>
<path d="M26.843 16.2109H25.4839V18.7983H26.843V16.2109Z" fill="#161314"/>
<path d="M27.1017 18.7754H25.2266V18.9342H27.1017V18.7754Z" fill="#161314"/>
<path d="M30.2971 17.1211H28.938V19.7085H30.2971V17.1211Z" fill="#161314"/>
<path d="M30.5567 19.6875H28.6816V19.8463H30.5567V19.6875Z" fill="#161314"/>
<path d="M23.4284 24.4707H22.0693V27.0581H23.4284V24.4707Z" fill="#161314"/>
<path d="M23.6857 27.0352H21.8105V27.1939H23.6857V27.0352Z" fill="#161314"/>
<path d="M26.8469 25.7441H25.4878V28.3315H26.8469V25.7441Z" fill="#161314"/>
<path d="M27.1066 28.3125H25.2314V28.4713H27.1066V28.3125Z" fill="#161314"/>
<path d="M30.3 27.0605H28.9409V29.6479H30.3V27.0605Z" fill="#161314"/>
<path d="M30.5587 29.627H28.6836V29.7857H30.5587V29.627Z" fill="#161314"/>
<path d="M23.4284 29.2344H22.0693V31.8218H23.4284V29.2344Z" fill="#DE822A"/>
<path d="M23.6857 31.8027H21.8105V31.9615H23.6857V31.8027Z" fill="#161314"/>
<path d="M26.8449 30.5195H25.4858V33.1069H26.8449V30.5195Z" fill="#161314"/>
<path d="M27.1036 33.0859H25.2285V33.2447H27.1036V33.0859Z" fill="#161314"/>
<path d="M30.3 31.4316H28.9409V34.019H30.3V31.4316Z" fill="#161314"/>
<path d="M30.5587 33.998H28.6836V34.1568H30.5587V33.998Z" fill="#161314"/>
<path d="M23.426 19.7129H22.0669V22.3003H23.426V19.7129Z" fill="#161314"/>
<path d="M23.6832 22.2793H21.8081V22.4381H23.6832V22.2793Z" fill="#161314"/>
<path d="M26.8449 20.9883H25.4858V23.5757H26.8449V20.9883Z" fill="#161314"/>
<path d="M27.1036 23.5566H25.2285V23.7154H27.1036V23.5566Z" fill="#161314"/>
<path d="M30.302 22.3047H28.9429V24.8921H30.302V22.3047Z" fill="#161314"/>
<path d="M30.5587 24.8711H28.6836V25.0299H30.5587V24.8711Z" fill="#161314"/>
<path d="M23.426 34.0391H22.0669V36.6265H23.426V34.0391Z" fill="#161314"/>
<path d="M23.6857 36.6074H21.8105V36.7662H23.6857V36.6074Z" fill="#161314"/>
<path d="M26.8449 35.3164H25.4858V37.9038H26.8449V35.3164Z" fill="#161314"/>
<path d="M27.1036 37.8828H25.2285V38.0416H27.1036V37.8828Z" fill="#161314"/>
<path d="M30.2971 36.6309H28.938V39.2183H30.2971V36.6309Z" fill="#161314"/>
<path d="M30.5567 39.1953H28.6816V39.3541H30.5567V39.1953Z" fill="#161314"/>
<path d="M23.4245 5.40234H22.0654V7.98974H23.4245V5.40234Z" fill="#161314"/>
<path d="M23.6813 7.9707H21.8062V8.12948H23.6813V7.9707Z" fill="#161314"/>
<path d="M26.843 6.67969H25.4839V9.26709H26.843V6.67969Z" fill="#161314"/>
<path d="M27.1017 9.24609H25.2266V9.40486H27.1017V9.24609Z" fill="#161314"/>
<path d="M30.2971 7.99805H28.938V10.5854H30.2971V7.99805Z" fill="#161314"/>
<path d="M30.5567 10.5625H28.6816V10.7213H30.5567V10.5625Z" fill="#161314"/>
<path d="M33.8307 0.779297H18.4829V2.4105H33.8307V0.779297Z" fill="#4F1F31"/>
<path d="M33.4487 2.41016H18.9185V3.12354H33.4487V2.41016Z" fill="#161314"/>
<path fill-rule="evenodd" clip-rule="evenodd" d="M6.98549 12.9062H0.827148V46.0615C2.86577 45.6973 4.91855 45.3767 6.98549 45.0996V12.9062Z" fill="#E3F383"/>
<path d="M73.9584 21.6198C73.9584 22.9386 73.1723 24.1716 71.9739 24.1716C71.6654 24.1608 71.3663 24.0609 71.1109 23.8836C70.8555 23.7063 70.6543 23.4587 70.5306 23.1693C71.9996 22.5429 72.122 20.1428 70.2149 20.1428C68.0822 20.1428 65.8529 24.9496 65.8529 30.185C65.8529 33.1456 66.8322 35.5984 69.3064 35.5984C70.8538 35.5549 72.3637 35.1005 73.6877 34.2797C73.809 34.326 73.9138 34.4087 73.9885 34.5169C74.0632 34.6251 74.1044 34.7538 74.1065 34.8863C74.1077 34.9879 74.0889 35.0887 74.0513 35.1827C74.0137 35.2767 73.958 35.362 73.8875 35.4336C73.1074 36.233 72.1786 36.8643 71.156 37.2901C70.1335 37.7159 69.0379 37.9277 67.934 37.9128C64.0681 37.9128 62.4058 34.4577 62.4058 30.6004C62.4058 24.2111 66.0784 18.4219 70.5564 18.4219C72.9274 18.4351 73.9584 20.0901 73.9584 21.6198Z" fill="#161314"/>
<path d="M74.7705 27.9837C74.8671 27.5815 74.7705 27.3244 74.5257 27.3244C74.4032 27.3244 74.255 27.4233 74.036 27.6277C73.9392 27.5423 73.8616 27.4365 73.8083 27.3176C73.7551 27.1987 73.7276 27.0694 73.7276 26.9386C73.7276 26.8079 73.7551 26.6786 73.8083 26.5597C73.8616 26.4408 73.9392 26.335 74.036 26.2496C74.7858 25.5368 75.753 25.1106 76.7743 25.043C77.657 25.043 78.1725 25.4716 77.9534 26.421L76.465 33.5686C76.246 34.5972 76.5617 35.0456 77.2962 35.0456C77.7444 35.0116 78.1794 34.8756 78.5696 34.6474C78.9598 34.4192 79.2952 34.1047 79.5513 33.7268L81.0204 26.632C81.115 26.1574 81.3765 25.7347 81.7553 25.4443C82.1342 25.1538 82.604 25.0157 83.0757 25.0562C83.4813 25.049 83.88 25.1636 84.2226 25.3858L82.5087 33.6741C82.2188 35.0785 82.6054 35.5269 83.2433 35.5269C84.2211 35.4382 85.1355 34.9937 85.8205 34.2741C85.9418 34.3205 86.0466 34.4031 86.1213 34.5113C86.196 34.6195 86.2371 34.7482 86.2393 34.8807C86.2294 35.0834 86.1521 35.2764 86.0203 35.428C84.8669 36.7467 83.1015 37.9072 81.7807 37.9072C80.5822 37.9072 79.3838 37.2478 79.5062 35.0785C78.5269 36.7072 77.3284 37.9072 75.9303 37.9072C73.2113 37.9072 73.2113 34.9796 73.6301 33.1004L74.7705 27.9837Z" fill="#161314"/>
<path d="M89.8276 27.5815C90.8263 26.1045 92.0505 25.0759 93.4487 25.0759C94.4538 25.0759 95.5749 25.8804 95.5041 27.6607C96.535 26.1573 97.7592 25.0759 99.1767 25.0759C100.278 25.0759 101.87 25.8276 101.232 28.7618L100.034 34.5247C99.8854 35.25 100.208 35.5467 100.678 35.5467C101.656 35.4585 102.57 35.014 103.255 34.2939C103.376 34.3403 103.481 34.4229 103.556 34.5311C103.631 34.6393 103.672 34.7681 103.674 34.9005C103.667 35.1039 103.59 35.2981 103.455 35.4478C102.302 36.7666 100.665 37.927 99.022 37.927C97.7978 37.927 96.5028 37.2677 97.0891 34.373L98.1135 29.3882C98.3133 28.5838 98.3391 27.9112 97.5272 27.9112C97.1131 27.9349 96.7088 28.0496 96.3418 28.2476C95.9749 28.4456 95.654 28.7222 95.401 29.0585L93.8804 36.3511C93.7858 36.8258 93.5243 37.2485 93.1454 37.5389C92.7666 37.8294 92.2967 37.9675 91.825 37.927C91.4186 37.9323 91.0189 37.8203 90.6717 37.6039L92.3856 29.3882C92.5595 28.5838 92.6111 27.9112 91.7992 27.9112C91.3508 27.9404 90.915 28.0745 90.5251 28.3031C90.1353 28.5318 89.8019 28.8488 89.5506 29.23L88.0622 36.3511C87.9676 36.8258 87.7061 37.2485 87.3272 37.5389C86.9484 37.8294 86.4786 37.9675 86.0068 37.927C85.6002 37.9334 85.2003 37.8213 84.8535 37.6039L86.8638 27.9837C86.9604 27.5815 86.8638 27.3244 86.6189 27.3244C86.4965 27.3244 86.3483 27.4233 86.1293 27.6277C86.0325 27.5423 85.9548 27.4365 85.9016 27.3176C85.8484 27.1987 85.8208 27.0694 85.8208 26.9387C85.8208 26.8079 85.8484 26.6786 85.9016 26.5597C85.9548 26.4408 86.0325 26.335 86.1293 26.2496C86.8791 25.5368 87.8463 25.1106 88.8676 25.043C89.7503 25.043 90.2658 25.4716 90.0467 26.421L89.8276 27.5815Z" fill="#161314"/>
<path d="M104.344 27.9837C104.441 27.5815 104.344 27.3244 104.099 27.3244C103.977 27.3244 103.828 27.4233 103.609 27.6277C103.514 27.5417 103.437 27.4357 103.384 27.3169C103.332 27.198 103.304 27.0691 103.304 26.9386C103.304 26.8082 103.332 26.6792 103.384 26.5604C103.437 26.4416 103.514 26.3356 103.609 26.2496C104.361 25.5354 105.331 25.1092 106.354 25.043C107.23 25.043 107.72 25.4716 107.527 26.421L106.032 33.5356C105.813 34.5642 106.129 35.0126 106.863 35.0126C107.311 34.9786 107.746 34.8426 108.137 34.6144C108.527 34.3863 108.862 34.0717 109.118 33.6939L110.613 26.6518C110.708 26.1772 110.969 25.7545 111.348 25.464C111.727 25.1736 112.197 25.0355 112.668 25.0759C113.076 25.0697 113.476 25.1842 113.822 25.4056L112.108 33.6939C111.837 34.973 112.153 35.5203 112.643 35.5203C113.132 35.5203 113.648 35.2236 114.015 34.3203C114.479 34.3203 114.75 34.5708 114.75 34.9796C114.75 36.7335 112.739 37.9072 111.373 37.9072C110.169 37.9072 108.97 37.2478 109.093 35.0785C108.113 36.7072 106.915 37.9072 105.523 37.9072C102.804 37.9072 102.804 34.9796 103.216 33.1004L104.344 27.9837Z" fill="#161314"/>
<path d="M148.216 34.292C148.337 34.3384 148.442 34.4211 148.517 34.5293C148.592 34.6375 148.633 34.7662 148.635 34.8987C148.638 35.0011 148.619 35.1031 148.581 35.1975C148.542 35.292 148.483 35.3767 148.409 35.4459C146.962 36.949 145.012 37.8349 142.952 37.9252C139.769 37.9252 138.5 34.9184 138.5 31.2853C138.501 30.0157 138.631 28.7496 138.886 27.5072L136.541 31.6612L135.587 36.3229C135.486 36.806 135.216 37.2349 134.829 37.5297C134.441 37.8244 133.962 37.965 133.481 37.9252C133.065 37.9347 132.656 37.8226 132.301 37.6021L134.363 27.6588L131.548 32.7425C130.298 35.7229 128.287 37.9252 125.697 37.9252C123.565 37.9252 121.831 37.3251 121.831 34.5426C121.804 34.2553 121.836 33.9652 121.927 33.6918C122.017 33.4183 122.164 33.1678 122.357 32.9569C122.549 32.746 122.784 32.5795 123.044 32.4687C123.305 32.3578 123.585 32.3051 123.867 32.3139C124.069 32.318 124.266 32.3702 124.444 32.4664C124.622 32.5626 124.775 32.7001 124.892 32.8678C124.683 33.241 124.574 33.6641 124.576 34.0942C124.576 35.4459 125.117 36.3229 126.116 36.3229C128.738 36.3229 130.401 31.3381 130.401 25.1532C130.401 22.219 129.866 20.3398 128.642 20.3398C127.269 20.3398 126.219 21.4146 125.459 23.096C125.325 23.0707 125.199 23.0146 125.09 22.9317C124.981 22.8489 124.892 22.7416 124.83 22.6181C124.768 22.4946 124.734 22.3582 124.731 22.2193C124.729 22.0804 124.757 21.9427 124.814 21.8168C125.129 20.9099 125.704 20.1213 126.464 19.5543C127.224 18.9872 128.133 18.6681 129.073 18.6387C131.792 18.6387 133.042 21.1443 133.042 25.1268C133.04 26.4998 132.891 27.8684 132.598 29.2083L134.95 24.9488L135.929 20.2871C136.031 19.804 136.3 19.3751 136.688 19.0803C137.075 18.7855 137.555 18.645 138.036 18.6848C138.449 18.6814 138.855 18.7955 139.209 19.0145L137.102 29.1556L139.969 24.0455C141.257 20.9926 143.3 18.6387 145.942 18.6387C150.619 18.6387 149.859 24.6521 147.262 24.6521C146.959 24.6342 146.666 24.5313 146.416 24.3545C146.166 24.1777 145.969 23.9339 145.845 23.6499C147.088 22.8982 147.211 20.2871 145.6 20.2871C141.464 20.2871 138.841 35.5712 144.311 35.5712C145.694 35.4695 147.033 35.0309 148.216 34.292Z" fill="#161314"/>
<path d="M157.745 33.693C157.475 34.9722 157.79 35.5195 158.28 35.5195C158.77 35.5195 159.285 35.2228 159.652 34.3194C160.116 34.3194 160.387 34.57 160.387 34.9788C160.387 36.7327 158.377 37.9064 157.011 37.9064C155.857 37.9064 154.704 37.3591 154.73 35.381C153.705 36.858 152.404 37.9064 151.012 37.9064C148.467 37.9064 147.952 35.2689 147.952 33.6996C147.952 29.3148 150.716 24.9564 154.118 24.9564C155.031 24.8985 155.932 25.1925 156.643 25.7806C156.853 25.544 157.11 25.3566 157.397 25.2314C157.684 25.1062 157.994 25.0461 158.306 25.0553C158.713 25.0491 159.114 25.1636 159.459 25.385L157.745 33.693ZM154.781 33.7721L156.154 27.0532C155.783 26.9214 155.393 26.8545 155 26.8554C152.037 26.8554 150.986 30.8116 150.986 33.5414C150.986 34.7942 151.547 35.348 152.307 35.348C152.805 35.2803 153.284 35.1047 153.71 34.833C154.137 34.5612 154.502 34.1996 154.781 33.7721Z" fill="#161314"/>
<path d="M167.958 33.8969L169.401 26.9537C168.911 26.9537 168.396 27.0065 167.887 27.0526C166.953 30.9099 165.999 33.4155 165.091 35.0244C163.989 37.0025 162.79 37.8992 161.869 37.9256C160.948 37.952 160.129 36.9497 160.129 35.1233C160.129 33.9166 160.941 33.5672 161.843 33.5672C162.204 33.5854 162.552 33.7064 162.848 33.9166C162.576 34.5392 162.434 35.2128 162.43 35.8947C163.718 35.0903 164.904 33.7914 166.643 27.2241C165.355 27.4285 164.221 27.7515 163.731 28.3252C163.412 27.9806 163.228 27.5274 163.216 27.0526C163.216 25.4965 164.537 24.8965 165.935 24.8965C167.475 24.8965 172.739 25.0943 172.539 26.0965L170.973 33.7122C170.683 35.1167 171.076 35.5651 171.708 35.5651C172.686 35.4763 173.6 35.0318 174.285 34.3123C174.406 34.3586 174.511 34.4413 174.586 34.5495C174.661 34.6577 174.702 34.7864 174.704 34.9189C174.694 35.1215 174.617 35.3146 174.485 35.4662C173.331 36.7849 171.572 37.9454 170.245 37.9454C168.538 37.9256 167.314 37.2267 167.958 33.8969Z" fill="#161314"/>
<path d="M189.864 29.4595C189.864 33.1915 187.242 37.9258 183.421 37.9258C180.902 37.9258 179.819 35.8488 179.819 33.4948C179.819 32.7862 179.901 32.0802 180.064 31.3915C179.243 31.8734 178.317 32.1385 177.371 32.1629L176.495 36.3499C176.413 36.8173 176.165 37.2371 175.798 37.5282C175.432 37.8192 174.973 37.9609 174.51 37.9258C174.104 37.931 173.704 37.819 173.357 37.6027L175.393 27.9825C175.464 27.5803 175.393 27.3232 175.148 27.3232C175.026 27.3232 174.878 27.4221 174.658 27.6265C174.562 27.5411 174.484 27.4353 174.431 27.3164C174.378 27.1975 174.35 27.0682 174.35 26.9374C174.35 26.8067 174.378 26.6774 174.431 26.5585C174.484 26.4396 174.562 26.3338 174.658 26.2484C175.408 25.5356 176.375 25.1094 177.397 25.0418C178.28 25.0418 178.795 25.4703 178.576 26.4198L177.7 30.5211C178.634 30.5471 179.565 30.3835 180.438 30.0398C181.417 27.3364 183.453 24.9824 186.069 24.9824C188.685 24.9824 189.864 27.0067 189.864 29.4595ZM182.938 32.6904C182.938 34.8993 183.672 35.7498 184.529 35.7498C186.462 35.7498 188.028 31.8926 188.028 29.2617C188.028 27.91 187.609 26.8814 186.611 26.8814C184.381 26.8814 182.938 30.2376 182.938 32.6904Z" fill="#161314"/>
<path d="M193.73 37.3512C193.81 36.8958 193.859 36.4354 193.878 35.9731C193.902 35.6622 193.861 35.3494 193.758 35.0561C193.654 34.7627 193.49 34.4954 193.277 34.2724C193.064 34.0493 192.807 33.8756 192.523 33.7629C192.238 33.6502 191.934 33.6012 191.629 33.6192C191.58 33.453 191.568 33.2773 191.596 33.1058C191.623 32.9343 191.689 32.7717 191.788 32.6306C191.888 32.4895 192.017 32.3738 192.167 32.2925C192.318 32.2112 192.484 32.1666 192.654 32.162C194.245 32.162 195.566 30.1113 195.566 28.5552C195.594 28.3263 195.572 28.0939 195.502 27.8745C195.433 27.655 195.317 27.4538 195.164 27.2848C195.011 27.1158 194.823 26.9832 194.614 26.8963C194.405 26.8094 194.18 26.7702 193.955 26.7815C193.62 26.786 193.288 26.853 192.976 26.9794C192.931 27.1421 192.913 27.3116 192.924 27.4805C192.953 28.0439 193.087 28.5966 193.317 29.1091C193.042 29.341 192.695 29.4648 192.338 29.4586C192.13 29.447 191.926 29.3927 191.738 29.2989C191.551 29.2052 191.384 29.0739 191.247 28.9128C191.11 28.7517 191.006 28.564 190.941 28.3611C190.876 28.1581 190.851 27.9438 190.869 27.731C190.869 26.4123 192.022 24.9023 195.076 24.9023C197.183 24.9023 198.459 26.3002 198.459 27.9552C198.459 30.4344 196.868 32.2675 194.419 32.9664C195.085 33.1543 195.671 33.5646 196.083 34.1321C196.495 34.6995 196.71 35.3916 196.694 36.0984C197.713 35.5412 198.674 34.8784 199.561 34.1203C199.652 34.1957 199.726 34.2911 199.777 34.3995C199.827 34.5079 199.854 34.6265 199.854 34.7467C199.854 34.8669 199.827 34.9855 199.777 35.0939C199.726 35.2023 199.652 35.2977 199.561 35.3731C198.604 36.1508 197.587 36.8476 196.52 37.4567C196.133 39.8675 195.374 42.2 194.271 44.3668C193.169 46.2197 191.694 47.3999 189.645 47.3999C189.251 47.4153 188.858 47.3449 188.492 47.1934C188.126 47.0419 187.796 46.8128 187.524 46.5212C187.251 46.2296 187.042 45.8821 186.91 45.5016C186.778 45.1212 186.726 44.7164 186.758 44.3141C186.758 41.1096 190.508 38.6765 193.73 37.3512ZM193.363 39.0523C190.65 40.1535 188.395 42.1843 188.395 43.9646C188.377 44.2564 188.473 44.5435 188.661 44.7633C188.849 44.9832 189.115 45.118 189.4 45.1383C190.354 45.1383 191.14 44.4789 191.797 43.3382C192.474 41.9711 193.007 40.5344 193.388 39.0523H193.363Z" fill="#161314"/>
<path d="M200.541 27.9831C200.637 27.5809 200.541 27.3237 200.296 27.3237C200.173 27.3237 200.025 27.4226 199.806 27.627C199.71 27.541 199.633 27.4351 199.581 27.3162C199.528 27.1974 199.501 27.0685 199.501 26.938C199.501 26.8075 199.528 26.6786 199.581 26.5598C199.633 26.4409 199.71 26.335 199.806 26.249C200.558 25.5348 201.527 25.1085 202.551 25.0423C203.427 25.0423 203.917 25.4709 203.724 26.4204L202.229 33.535C202.01 34.5636 202.325 35.012 203.06 35.012C203.508 34.978 203.943 34.842 204.333 34.6138C204.723 34.3856 205.059 34.0711 205.315 33.6932L206.784 26.5984C206.879 26.1238 207.14 25.7011 207.519 25.4107C207.898 25.1202 208.368 24.9821 208.839 25.0225C209.247 25.0163 209.647 25.1308 209.993 25.3522L208.279 33.6405C208.008 34.9196 208.324 35.4669 208.814 35.4669C209.303 35.4669 209.819 35.1702 210.186 34.2669C210.65 34.2669 210.921 34.5174 210.921 34.9262C210.921 36.6801 208.917 37.8538 207.544 37.8538C206.346 37.8538 205.141 37.1945 205.263 35.0251C204.284 36.6538 203.086 37.8538 201.694 37.8538C198.975 37.8538 198.975 34.9262 199.394 33.047L200.541 27.9831Z" fill="#161314"/>
</svg>
