<svg width="29" height="28" viewBox="0 0 29 28" fill="none" xmlns="http://www.w3.org/2000/svg">
<path d="M11.3336 24.8898C11.8705 24.8898 12.3058 24.4545 12.3058 23.9175C12.3058 23.3806 11.8705 22.9453 11.3336 22.9453C10.7966 22.9453 10.3613 23.3806 10.3613 23.9175C10.3613 24.4545 10.7966 24.8898 11.3336 24.8898Z" stroke="#A3A3A3" stroke-width="2" stroke-linecap="round" stroke-linejoin="round"/>
<path d="M22.0279 24.8898C22.5648 24.8898 23.0001 24.4545 23.0001 23.9175C23.0001 23.3806 22.5648 22.9453 22.0279 22.9453C21.4909 22.9453 21.0557 23.3806 21.0557 23.9175C21.0557 24.4545 21.4909 24.8898 22.0279 24.8898Z" stroke="#A3A3A3" stroke-width="2" stroke-linecap="round" stroke-linejoin="round"/>
<path d="M8.41678 9.33377L10.0501 17.4907C10.139 17.9383 10.3825 18.3404 10.738 18.6266C11.0935 18.9127 11.5383 19.0647 11.9946 19.056H21.4446C21.9008 19.0647 22.3456 18.9127 22.7011 18.6266C23.0566 18.3404 23.3001 17.9383 23.389 17.4907L24.9446 9.33377H8.41678Z" fill="#A3A3A3"/>
<path d="M3.55566 4.47266H7.44455L10.0501 17.4907M10.0501 17.4907C10.139 17.9383 10.3825 18.3404 10.738 18.6266C11.0935 18.9127 11.5383 19.0647 11.9946 19.056H21.4446C21.9008 19.0647 22.3456 18.9127 22.7011 18.6266C23.0566 18.3404 23.3001 17.9383 23.389 17.4907L24.9446 9.33377H8.41678L10.0501 17.4907Z" stroke="#A3A3A3" stroke-width="2" stroke-linecap="round" stroke-linejoin="round"/>
</svg>
