<svg width="25" height="26" viewBox="0 0 25 26" fill="none" xmlns="http://www.w3.org/2000/svg">
<path d="M23.2223 1H1.88889C1.39797 1 1 1.39797 1 1.88889C1 2.37981 1.39797 2.77778 1.88889 2.77778H23.2223C23.7132 2.77778 24.1112 2.37981 24.1112 1.88889C24.1112 1.39797 23.7132 1 23.2223 1Z" stroke="#A3A3A3" stroke-linecap="round" stroke-linejoin="round"/>
<path d="M20 4.55469H3.33325C2.78097 4.55469 2.33325 5.0024 2.33325 5.55469V23.9992C2.33325 24.5515 2.78097 24.9992 3.33325 24.9992H20C20.5522 24.9992 21 24.5515 21 23.9992V5.55469C21 5.0024 20.5522 4.55469 20 4.55469Z" stroke="#A3A3A3" stroke-linecap="round" stroke-linejoin="round"/>
<path d="M18.3333 4.55469V24.9992" stroke="#A3A3A3" stroke-linecap="round" stroke-linejoin="round"/>
<path d="M15.6667 4.55469V24.9992" stroke="#A3A3A3" stroke-linecap="round" stroke-linejoin="round"/>
<path d="M13 4.55469V24.9992" stroke="#A3A3A3" stroke-linecap="round" stroke-linejoin="round"/>
<path d="M10.3333 4.55469V24.9992" stroke="#A3A3A3" stroke-linecap="round" stroke-linejoin="round"/>
<path d="M7.66675 4.55469V24.9992" stroke="#A3A3A3" stroke-linecap="round" stroke-linejoin="round"/>
<path d="M5 4.55469V24.9992" stroke="#A3A3A3" stroke-linecap="round" stroke-linejoin="round"/>
<path d="M19.6667 2.77734V4.55512" stroke="#A3A3A3" stroke-linecap="round" stroke-linejoin="round"/>
<path d="M17 2.77734V4.55512" stroke="#A3A3A3" stroke-linecap="round" stroke-linejoin="round"/>
<path d="M14.3333 2.77734V4.55512" stroke="#A3A3A3" stroke-linecap="round" stroke-linejoin="round"/>
<path d="M11.6667 2.77734V4.55512" stroke="#A3A3A3" stroke-linecap="round" stroke-linejoin="round"/>
<path d="M9 2.77734V4.55512" stroke="#A3A3A3" stroke-linecap="round" stroke-linejoin="round"/>
<path d="M6.33325 2.77734V4.55512" stroke="#A3A3A3" stroke-linecap="round" stroke-linejoin="round"/>
<path d="M3.66675 2.77734V4.55512" stroke="#A3A3A3" stroke-linecap="round" stroke-linejoin="round"/>
<path d="M23.2222 4.55477C23.1045 4.55313 22.9918 4.5071 22.9066 4.42588C22.865 4.38457 22.8319 4.33541 22.8093 4.28125C22.7868 4.22709 22.7751 4.169 22.7751 4.11033C22.7751 4.05165 22.7868 3.99356 22.8093 3.9394C22.8319 3.88524 22.865 3.83609 22.9066 3.79477C22.9903 3.71108 23.1038 3.66406 23.2222 3.66406C23.3405 3.66406 23.454 3.71108 23.5377 3.79477C23.6214 3.87846 23.6684 3.99197 23.6684 4.11033C23.6684 4.22868 23.6214 4.34219 23.5377 4.42588C23.4526 4.5071 23.3398 4.55313 23.2222 4.55477Z" fill="#A3A3A3"/>
<path d="M22.7778 18.7778C22.7778 18.6599 22.8247 18.5469 22.908 18.4635C22.9914 18.3802 23.1044 18.3334 23.2223 18.3334C23.3402 18.3334 23.4532 18.3802 23.5365 18.4635C23.6199 18.5469 23.6667 18.6599 23.6667 18.7778C23.6667 18.8957 23.6199 19.0087 23.5365 19.0921C23.4532 19.1754 23.3402 19.2222 23.2223 19.2222C23.1044 19.2222 22.9914 19.1754 22.908 19.0921C22.8247 19.0087 22.7778 18.8957 22.7778 18.7778ZM22.7778 17.4445C22.7778 17.3266 22.8247 17.2135 22.908 17.1302C22.9914 17.0468 23.1044 17 23.2223 17C23.3402 17 23.4532 17.0468 23.5365 17.1302C23.6199 17.2135 23.6667 17.3266 23.6667 17.4445C23.6667 17.5623 23.6199 17.6754 23.5365 17.7587C23.4532 17.8421 23.3402 17.8889 23.2223 17.8889C23.1044 17.8889 22.9914 17.8421 22.908 17.7587C22.8247 17.6754 22.7778 17.5623 22.7778 17.4445ZM22.7778 16.1111C22.7778 15.9933 22.8247 15.8802 22.908 15.7969C22.9914 15.7135 23.1044 15.6667 23.2223 15.6667C23.3402 15.6667 23.4532 15.7135 23.5365 15.7969C23.6199 15.8802 23.6667 15.9933 23.6667 16.1111C23.6667 16.229 23.6199 16.3421 23.5365 16.4254C23.4532 16.5087 23.3402 16.5556 23.2223 16.5556C23.1044 16.5556 22.9914 16.5087 22.908 16.4254C22.8247 16.3421 22.7778 16.229 22.7778 16.1111ZM22.7778 14.7778C22.7778 14.6599 22.8247 14.5469 22.908 14.4635C22.9914 14.3802 23.1044 14.3333 23.2223 14.3333C23.3402 14.3333 23.4532 14.3802 23.5365 14.4635C23.6199 14.5469 23.6667 14.6599 23.6667 14.7778C23.6667 14.8957 23.6199 15.0087 23.5365 15.0921C23.4532 15.1754 23.3402 15.2222 23.2223 15.2222C23.1044 15.2222 22.9914 15.1754 22.908 15.0921C22.8247 15.0087 22.7778 14.8957 22.7778 14.7778ZM22.7778 13.4445C22.7778 13.3266 22.8247 13.2135 22.908 13.1302C22.9914 13.0468 23.1044 13 23.2223 13C23.3402 13 23.4532 13.0468 23.5365 13.1302C23.6199 13.2135 23.6667 13.3266 23.6667 13.4445C23.6667 13.5623 23.6199 13.6754 23.5365 13.7587C23.4532 13.8421 23.3402 13.8889 23.2223 13.8889C23.1044 13.8889 22.9914 13.8421 22.908 13.7587C22.8247 13.6754 22.7778 13.5623 22.7778 13.4445ZM22.7778 12.1111C22.7778 11.9932 22.8247 11.8802 22.908 11.7969C22.9914 11.7135 23.1044 11.6667 23.2223 11.6667C23.3402 11.6667 23.4532 11.7135 23.5365 11.7969C23.6199 11.8802 23.6667 11.9932 23.6667 12.1111C23.6667 12.229 23.6199 12.342 23.5365 12.4254C23.4532 12.5087 23.3402 12.5556 23.2223 12.5556C23.1044 12.5556 22.9914 12.5087 22.908 12.4254C22.8247 12.342 22.7778 12.229 22.7778 12.1111ZM22.7778 10.7778C22.7778 10.6599 22.8247 10.5469 22.908 10.4635C22.9914 10.3802 23.1044 10.3333 23.2223 10.3333C23.3402 10.3333 23.4532 10.3802 23.5365 10.4635C23.6199 10.5469 23.6667 10.6599 23.6667 10.7778C23.6667 10.8957 23.6199 11.0087 23.5365 11.0921C23.4532 11.1754 23.3402 11.2222 23.2223 11.2222C23.1044 11.2222 22.9914 11.1754 22.908 11.0921C22.8247 11.0087 22.7778 10.8957 22.7778 10.7778ZM22.7778 9.44445C22.7778 9.32658 22.8247 9.21353 22.908 9.13018C22.9914 9.04683 23.1044 9.00001 23.2223 9.00001C23.3402 9.00001 23.4532 9.04683 23.5365 9.13018C23.6199 9.21353 23.6667 9.32658 23.6667 9.44445C23.6667 9.56233 23.6199 9.67537 23.5365 9.75872C23.4532 9.84207 23.3402 9.8889 23.2223 9.8889C23.1044 9.8889 22.9914 9.84207 22.908 9.75872C22.8247 9.67537 22.7778 9.56233 22.7778 9.44445ZM22.7778 8.11112C22.7778 7.99324 22.8247 7.8802 22.908 7.79685C22.9914 7.7135 23.1044 7.66667 23.2223 7.66667C23.3402 7.66667 23.4532 7.7135 23.5365 7.79685C23.6199 7.8802 23.6667 7.99324 23.6667 8.11112C23.6667 8.22899 23.6199 8.34204 23.5365 8.42539C23.4532 8.50874 23.3402 8.55556 23.2223 8.55556C23.1044 8.55556 22.9914 8.50874 22.908 8.42539C22.8247 8.34204 22.7778 8.22899 22.7778 8.11112ZM22.7778 6.77778C22.7778 6.65991 22.8247 6.54686 22.908 6.46351C22.9914 6.38016 23.1044 6.33334 23.2223 6.33334C23.3402 6.33334 23.4532 6.38016 23.5365 6.46351C23.6199 6.54686 23.6667 6.65991 23.6667 6.77778C23.6667 6.89565 23.6199 7.0087 23.5365 7.09205C23.4532 7.1754 23.3402 7.22223 23.2223 7.22223C23.1044 7.22223 22.9914 7.1754 22.908 7.09205C22.8247 7.0087 22.7778 6.89565 22.7778 6.77778ZM22.7778 5.44445C22.7778 5.32657 22.8247 5.21352 22.908 5.13018C22.9914 5.04683 23.1044 5 23.2223 5C23.3402 5 23.4532 5.04683 23.5365 5.13018C23.6199 5.21352 23.6667 5.32657 23.6667 5.44445C23.6667 5.56232 23.6199 5.67537 23.5365 5.75872C23.4532 5.84206 23.3402 5.88889 23.2223 5.88889C23.1044 5.88889 22.9914 5.84206 22.908 5.75872C22.8247 5.67537 22.7778 5.56232 22.7778 5.44445Z" fill="#A3A3A3"/>
<path d="M24.1113 22.0219H22.3335V21.133C22.3335 20.8973 22.4271 20.6712 22.5938 20.5045C22.7605 20.3378 22.9866 20.2441 23.2224 20.2441C23.4581 20.2441 23.6842 20.3378 23.8509 20.5045C24.0176 20.6712 24.1113 20.8973 24.1113 21.133V22.0219Z" stroke="#A3A3A3" stroke-linecap="round" stroke-linejoin="round"/>
<path d="M22.3335 1V2.77778" stroke="#A3A3A3" stroke-linecap="round" stroke-linejoin="round"/>
<path d="M2.77783 1V2.77778" stroke="#A3A3A3" stroke-linecap="round" stroke-linejoin="round"/>
</svg>
