<svg width="28" height="28" viewBox="0 0 28 28" fill="none" xmlns="http://www.w3.org/2000/svg">
<path d="M17.3585 5.84197C18.5431 6.07265 19.6318 6.65089 20.4852 7.50269C21.3386 8.35449 21.918 9.44109 22.1491 10.6234M17.3585 1C19.8196 1.27289 22.1146 2.37291 23.8667 4.11945C25.6188 5.86599 26.7238 8.15523 27.0003 10.6113M25.7875 20.271V23.9025C25.7889 24.2396 25.7197 24.5733 25.5844 24.8822C25.4491 25.1911 25.2506 25.4684 25.0017 25.6963C24.7528 25.9242 24.459 26.0977 24.139 26.2057C23.819 26.3137 23.48 26.3539 23.1436 26.3235C19.4116 25.9188 15.8267 24.6459 12.677 22.6073C9.74667 20.7488 7.26224 18.2691 5.40017 15.3443C3.35049 12.1864 2.07493 8.59099 1.67684 4.84937C1.64653 4.51463 1.68639 4.17725 1.79387 3.85873C1.90136 3.54021 2.07412 3.24751 2.30115 2.99928C2.52818 2.75104 2.80451 2.55271 3.11255 2.41691C3.42059 2.28111 3.75358 2.21081 4.09033 2.21049H7.72876C8.31735 2.20471 8.88796 2.41274 9.33423 2.79581C9.78051 3.17887 10.072 3.71083 10.1544 4.29254C10.308 5.45469 10.5928 6.59578 11.0034 7.69403C11.1665 8.12729 11.2018 8.59816 11.1051 9.05084C11.0084 9.50352 10.7837 9.91904 10.4576 10.2482L8.91732 11.7855C10.6438 14.816 13.1579 17.3252 16.1942 19.0484L17.7345 17.5111C18.0642 17.1857 18.4805 16.9614 18.9341 16.8648C19.3876 16.7683 19.8594 16.8035 20.2935 16.9664C21.3938 17.3762 22.5371 17.6605 23.7015 17.8137C24.2906 17.8967 24.8287 18.1929 25.2133 18.646C25.5979 19.099 25.8023 19.6774 25.7875 20.271Z" stroke="black" stroke-width="2" stroke-linecap="round" stroke-linejoin="round"/>
</svg>
