<svg width="22" height="22" viewBox="0 0 22 22" fill="none" xmlns="http://www.w3.org/2000/svg">
<path d="M11 0C4.92525 0 0 4.92525 0 11C0 13.0636 0.579646 14.9876 1.56836 16.6379L0.0984701 22L5.5752 20.5623C7.17691 21.473 9.02595 22 11 22C17.0748 22 22 17.0748 22 11C22 4.92525 17.0748 0 11 0ZM7.23486 5.86882C7.41361 5.86882 7.59728 5.86773 7.75586 5.87598C7.95203 5.88056 8.16554 5.89493 8.36995 6.34684C8.61287 6.88401 9.1418 8.23158 9.20964 8.36816C9.27747 8.50475 9.32554 8.66565 9.23112 8.8444C9.14129 9.02773 9.09457 9.13869 8.96257 9.30094C8.82598 9.45861 8.67632 9.65443 8.55257 9.7736C8.41599 9.91018 8.27495 10.0599 8.43262 10.3322C8.59028 10.6044 9.13785 11.4969 9.94726 12.2174C10.9877 13.1469 11.8655 13.4326 12.1387 13.5692C12.4118 13.7058 12.57 13.6845 12.7277 13.5011C12.89 13.3224 13.4091 12.709 13.5924 12.4359C13.7712 12.1627 13.9537 12.21 14.2012 12.2998C14.4523 12.3896 15.7918 13.0495 16.0649 13.186C16.3381 13.3226 16.5172 13.3902 16.5859 13.5011C16.6565 13.6157 16.6566 14.1612 16.4302 14.7974C16.2038 15.4326 15.0919 16.0469 14.5933 16.09C14.09 16.1368 13.6203 16.3162 11.3223 15.4115C8.55027 14.3197 6.80211 11.4805 6.66553 11.2972C6.52894 11.1185 5.5555 9.82108 5.5555 8.48275C5.5555 7.13983 6.2596 6.48215 6.50619 6.20898C6.75735 5.93582 7.05153 5.86882 7.23486 5.86882Z" fill="#161314"/>
</svg>
