<svg width="23" height="23" viewBox="0 0 23 23" fill="none" xmlns="http://www.w3.org/2000/svg">
<path d="M11.2002 0.40625C5.12545 0.40625 0.200195 5.3315 0.200195 11.4062C0.200195 13.4699 0.779842 15.3938 1.76855 17.0441L0.298665 22.4062L5.77539 20.9686C7.3771 21.8792 9.22614 22.4062 11.2002 22.4062C17.2749 22.4062 22.2002 17.481 22.2002 11.4062C22.2002 5.3315 17.2749 0.40625 11.2002 0.40625ZM7.43506 6.27507C7.61381 6.27507 7.79747 6.27398 7.95606 6.28223C8.15222 6.28681 8.36573 6.30118 8.57015 6.75309C8.81307 7.29026 9.342 8.63783 9.40983 8.77441C9.47766 8.911 9.52573 9.0719 9.43131 9.25065C9.34148 9.43398 9.29476 9.54494 9.16276 9.70719C9.02618 9.86486 8.87652 10.0607 8.75277 10.1799C8.61618 10.3164 8.47515 10.4662 8.63281 10.7384C8.79048 11.0107 9.33804 11.9032 10.1475 12.6237C11.1879 13.5532 12.0657 13.8388 12.3389 13.9754C12.612 14.112 12.7702 14.0907 12.9279 13.9074C13.0901 13.7286 13.6093 13.1153 13.7926 12.8421C13.9714 12.569 14.1539 12.6162 14.4014 12.7061C14.6525 12.7959 15.992 13.4557 16.2651 13.5923C16.5383 13.7289 16.7174 13.7965 16.7861 13.9074C16.8567 14.022 16.8568 14.5674 16.6304 15.2036C16.404 15.8389 15.2921 16.4532 14.7935 16.4963C14.2902 16.543 13.8205 16.7225 11.5225 15.8177C8.75046 14.726 7.00231 11.8868 6.86572 11.7035C6.72914 11.5247 5.7557 10.2273 5.7557 8.889C5.7557 7.54608 6.4598 6.8884 6.70638 6.61523C6.95755 6.34207 7.25173 6.27507 7.43506 6.27507Z" fill="#CECECE"/>
</svg>
