<svg width="29" height="29" viewBox="0 0 29 29" fill="none" xmlns="http://www.w3.org/2000/svg">
<path d="M10.8748 26.5846C11.5422 26.5846 12.0832 26.0436 12.0832 25.3763C12.0832 24.709 11.5422 24.168 10.8748 24.168C10.2075 24.168 9.6665 24.709 9.6665 25.3763C9.6665 26.0436 10.2075 26.5846 10.8748 26.5846Z" stroke="#161314" stroke-width="2" stroke-linecap="round" stroke-linejoin="round"/>
<path d="M24.1668 26.5846C24.8342 26.5846 25.3752 26.0436 25.3752 25.3763C25.3752 24.709 24.8342 24.168 24.1668 24.168C23.4995 24.168 22.9585 24.709 22.9585 25.3763C22.9585 26.0436 23.4995 26.5846 24.1668 26.5846Z" stroke="#161314" stroke-width="2" stroke-linecap="round" stroke-linejoin="round"/>
<path d="M1.2085 1.20703H6.04183L9.28016 17.3866C9.39066 17.9429 9.6933 18.4427 10.1351 18.7983C10.5769 19.154 11.1298 19.3429 11.6968 19.332H23.4418C24.0089 19.3429 24.5617 19.154 25.0035 18.7983C25.4454 18.4427 25.748 17.9429 25.8585 17.3866L27.7918 7.2487H7.25016" stroke="#161314" stroke-width="2" stroke-linecap="round" stroke-linejoin="round"/>
</svg>
