<svg width="28" height="27" viewBox="0 0 28 27" fill="none" xmlns="http://www.w3.org/2000/svg">
<path d="M5.50464 25.6683L6.94439 26.2201C7.35765 26.379 7.81482 26.379 8.22808 26.2201L9.02709 25.9133C9.43997 25.7544 9.8968 25.7544 10.3097 25.9133L11.1087 26.2201C11.5219 26.379 11.9791 26.379 12.3924 26.2201L13.1914 25.9133C13.6043 25.7544 14.0611 25.7544 14.474 25.9133L15.273 26.2201C15.6862 26.379 16.1434 26.379 16.5567 26.2201L17.3557 25.9133C17.7686 25.7544 18.2254 25.7544 18.6383 25.9133L19.4373 26.2212C19.8507 26.3789 20.3075 26.3789 20.721 26.2212L22.1618 25.6694V7.34689L20.0802 6.54688L18.6383 7.10081C18.2254 7.25974 17.7686 7.25974 17.3557 7.10081L15.9148 6.54908L14.474 7.10081C14.0611 7.25974 13.6043 7.25974 13.1914 7.10081L11.7505 6.54908L10.3097 7.10081C9.8968 7.25974 9.43997 7.25974 9.02709 7.10081L7.58624 6.54908L5.50464 7.34689V25.6683Z" stroke="#A3A3A3" stroke-linecap="round" stroke-linejoin="round"/>
<path d="M20.0801 6.46592V2.09375" stroke="#A3A3A3" stroke-linecap="round" stroke-linejoin="round"/>
<path d="M15.929 6.46592V2.09375" stroke="#A3A3A3" stroke-linecap="round" stroke-linejoin="round"/>
<path d="M11.7781 6.46592V2.09375" stroke="#A3A3A3" stroke-linecap="round" stroke-linejoin="round"/>
<path d="M7.6272 6.46592V2.09375" stroke="#A3A3A3" stroke-linecap="round" stroke-linejoin="round"/>
<path d="M18.4187 21.867V9.74414" stroke="#A3A3A3" stroke-linecap="round" stroke-linejoin="round"/>
<path d="M14.064 21.867V9.74414" stroke="#A3A3A3" stroke-linecap="round" stroke-linejoin="round"/>
<path d="M9.70923 21.867V9.74414" stroke="#A3A3A3" stroke-linecap="round" stroke-linejoin="round"/>
<path d="M5.35474 2.09375H22.7734M22.7734 3.71307H5.35474" stroke="#A3A3A3" stroke-linecap="round" stroke-linejoin="round"/>
<ellipse cx="3.17734" cy="3.18608" rx="2.17734" ry="2.18608" stroke="#A3A3A3"/>
<ellipse cx="24.9508" cy="3.18608" rx="2.17734" ry="2.18608" stroke="#A3A3A3"/>
<ellipse cx="3.17729" cy="3.18679" rx="1.08867" ry="1.09304" fill="#A3A3A3"/>
<ellipse cx="24.9507" cy="3.18679" rx="1.08867" ry="1.09304" fill="#A3A3A3"/>
</svg>
