<svg width="32" height="32" viewBox="0 0 32 32" fill="none" xmlns="http://www.w3.org/2000/svg">
<path d="M24.4001 19L20.8 19.6" stroke="#A3A3A3" stroke-linecap="round" stroke-linejoin="round"/>
<path d="M1.59995 19L5.19995 19.6" stroke="#A3A3A3" stroke-linecap="round" stroke-linejoin="round"/>
<path d="M24.624 27.7395V18.4391V6.40039" stroke="#A3A3A3" stroke-linecap="round" stroke-linejoin="round"/>
<path d="M1.51147 27.7395V18.4391V6.40039" stroke="#A3A3A3" stroke-linecap="round" stroke-linejoin="round"/>
<path d="M23.4649 18.3586C22.4385 16.5665 21.7654 6.40039 21.7654 6.40039" stroke="#A3A3A3" stroke-linecap="round" stroke-linejoin="round"/>
<path d="M2.67065 18.3586C3.69715 16.5665 4.37022 6.40039 4.37022 6.40039" stroke="#A3A3A3" stroke-linecap="round" stroke-linejoin="round"/>
<path d="M23.0619 19.4316L21.9968 27.056" stroke="#A3A3A3" stroke-linecap="round" stroke-linejoin="round"/>
<path d="M3.07373 19.4316L4.13883 27.056" stroke="#A3A3A3" stroke-linecap="round" stroke-linejoin="round"/>
<path d="M22.5373 18.6179C20.3564 17.1478 18.9114 6.40039 18.9114 6.40039" stroke="#A3A3A3" stroke-linecap="round" stroke-linejoin="round"/>
<path d="M3.59961 18.6179C5.78287 17.1478 7.22913 6.40039 7.22913 6.40039" stroke="#A3A3A3" stroke-linecap="round" stroke-linejoin="round"/>
<path d="M16.0491 6.40039C16.0491 6.40039 18.2516 17.3674 21.5639 18.8521" stroke="#A3A3A3" stroke-linecap="round" stroke-linejoin="round"/>
<path d="M10.0878 6.40039C10.0878 6.40039 7.88406 17.3674 4.57178 18.8521" stroke="#A3A3A3" stroke-linecap="round" stroke-linejoin="round"/>
<path d="M18.1721 27.5845L21.5156 19.7754" stroke="#A3A3A3" stroke-linecap="round" stroke-linejoin="round"/>
<path d="M7.96454 27.5845L4.61987 19.7754" stroke="#A3A3A3" stroke-linecap="round" stroke-linejoin="round"/>
<path d="M13.1914 6.40039C13.1914 6.40039 16.2456 17.7856 20.8099 19.1261" stroke="#A3A3A3" stroke-linecap="round" stroke-linejoin="round"/>
<path d="M12.9454 6.40039C12.9454 6.40039 9.89003 17.7856 5.32568 19.1261" stroke="#A3A3A3" stroke-linecap="round" stroke-linejoin="round"/>
<path d="M18.1721 27.585L21.9969 27.0625C22.653 27.2319 22.4432 27.7996 23.0994 27.969C23.7555 28.1384 23.9678 27.5706 24.624 27.74" stroke="#A3A3A3" stroke-linecap="round" stroke-linejoin="round"/>
<path d="M7.96458 27.585C7.30719 27.7596 4.13863 27.0625 4.13863 27.0625C3.48244 27.2319 3.69353 27.7996 3.03614 27.969C2.37875 28.1384 2.16766 27.5706 1.51147 27.74" stroke="#A3A3A3" stroke-linecap="round" stroke-linejoin="round"/>
<path d="M7.96454 27.5845L4.61987 19.7754" stroke="#A3A3A3" stroke-linecap="round" stroke-linejoin="round"/>
<path d="M7.96458 27.585C7.30719 27.7596 4.13863 27.0625 4.13863 27.0625C3.48244 27.2319 3.69353 27.7996 3.03614 27.969C2.37875 28.1384 2.16766 27.5706 1.51147 27.74" stroke="#A3A3A3" stroke-linecap="round" stroke-linejoin="round"/>
<path d="M24.4223 4H1.88889C1.39797 4 1 4.39797 1 4.88889C1 5.37981 1.39797 5.77778 1.88889 5.77778H24.4223C24.9132 5.77778 25.3112 5.37981 25.3112 4.88889C25.3112 4.39797 24.9132 4 24.4223 4Z" stroke="#A3A3A3" stroke-linecap="round" stroke-linejoin="round"/>
</svg>
