<svg width="26" height="26" viewBox="0 0 26 26" fill="none" xmlns="http://www.w3.org/2000/svg">
<path d="M25.043 25.043V2C25.043 1.44772 24.5953 1 24.043 1H2C1.44772 1 1 1.44772 1 2V25.043" stroke="#A3A3A3" stroke-linecap="round" stroke-linejoin="round"/>
<path d="M0.999996 17.8301H3.4043" stroke="#A3A3A3" stroke-linecap="round" stroke-linejoin="round"/>
<path d="M2.20215 17.832L3.4043 25.0449" stroke="#A3A3A3" stroke-linecap="round" stroke-linejoin="round"/>
<path d="M2.20215 17.8311C5.09466 17.2525 8.2129 11.8203 8.2129 11.8203" stroke="#A3A3A3" stroke-linecap="round" stroke-linejoin="round"/>
<path d="M10.6172 13.0234C10.6172 13.0234 7.73551 17.2587 3.4043 17.832" stroke="#A3A3A3" stroke-linecap="round" stroke-linejoin="round"/>
<path d="M8.2129 25.0449L3.4043 17.832" stroke="#A3A3A3" stroke-linecap="round" stroke-linejoin="round"/>
<path d="M23.8408 17.832L22.6387 25.0449" stroke="#A3A3A3" stroke-linecap="round" stroke-linejoin="round"/>
<path d="M23.8408 17.8311C20.9483 17.2525 17.8301 11.8203 17.8301 11.8203" stroke="#A3A3A3" stroke-linecap="round" stroke-linejoin="round"/>
<path d="M15.4258 13.0234C15.4258 13.0234 18.3075 17.2587 22.6387 17.832" stroke="#A3A3A3" stroke-linecap="round" stroke-linejoin="round"/>
<path d="M17.8301 25.0449L22.6387 17.832" stroke="#A3A3A3" stroke-linecap="round" stroke-linejoin="round"/>
<path d="M25.0417 2.20117C25.0427 2.6666 25.0627 6.24152 24.9041 6.68026C24.7232 7.184 24.442 7.64759 24.0768 8.04417C23.472 8.71129 22.6602 9.16565 21.7662 9.33749H21.7588C21.2283 9.4396 20.6825 9.4396 20.152 9.33749H20.1447C19.2952 9.17453 18.5187 8.75632 17.9232 8.14108C17.8064 8.02079 17.6663 7.92454 17.511 7.85797C17.3558 7.79141 17.1885 7.75587 17.019 7.75344H16.9762C16.8068 7.75587 16.6395 7.79141 16.4842 7.85797C16.3289 7.92454 16.1888 8.02079 16.072 8.14108C15.4766 8.75632 14.7001 9.17453 13.8506 9.33749H13.8432C13.5789 9.38913 13.31 9.41478 13.0404 9.41406H13.0209C12.7513 9.41478 12.4824 9.38913 12.2181 9.33749H12.2107C11.3612 9.17453 10.5847 8.75632 9.9893 8.14108C9.87252 8.02079 9.73238 7.92454 9.57711 7.85797C9.42184 7.79141 9.25456 7.75587 9.08508 7.75344H9.04231C8.87283 7.75587 8.70554 7.79141 8.55027 7.85797C8.395 7.92454 8.25487 8.02079 8.13809 8.14108C7.54266 8.75632 6.76615 9.17453 5.91664 9.33749H5.90931C5.37877 9.4396 4.83301 9.4396 4.30248 9.33749H4.2927C3.40197 9.16669 2.59269 8.71545 1.98816 8.05254C1.62297 7.65597 1.34179 7.19238 1.16092 6.68863C1.00017 6.25025 1.00097 2.66695 1 2.20117" stroke="#A3A3A3" stroke-linecap="round" stroke-linejoin="round"/>
<path d="M25.0417 2.20117C25.0427 2.6666 25.0627 9.84797 24.9041 10.2867C24.7232 10.7905 24.442 11.254 24.0768 11.6506C23.472 12.3177 22.6602 12.7721 21.7662 12.9439H21.7588C21.2283 13.046 20.6825 13.046 20.152 12.9439H20.1447C19.2952 12.781 18.5187 12.3628 17.9232 11.7475C17.8064 11.6272 17.6663 11.531 17.511 11.4644C17.3558 11.3979 17.1885 11.3623 17.019 11.3599H16.9762C16.8068 11.3623 16.6395 11.3979 16.4842 11.4644C16.3289 11.531 16.1888 11.6272 16.072 11.7475C15.4766 12.3628 14.7001 12.781 13.8506 12.9439H13.8432C13.5789 12.9956 13.31 13.0212 13.0404 13.0205H13.0209C12.7513 13.0212 12.4824 12.9956 12.2181 12.9439H12.2107C11.3612 12.781 10.5847 12.3628 9.9893 11.7475C9.87252 11.6272 9.73238 11.531 9.57711 11.4644C9.42184 11.3979 9.25456 11.3623 9.08508 11.3599H9.04231C8.87283 11.3623 8.70554 11.3979 8.55027 11.4644C8.395 11.531 8.25487 11.6272 8.13809 11.7475C7.54266 12.3628 6.76615 12.781 5.91664 12.9439H5.90931C5.37877 13.046 4.83301 13.046 4.30248 12.9439H4.2927C3.40197 12.7731 2.59269 12.3219 1.98816 11.659C1.62297 11.2624 1.34179 10.7988 1.16092 10.2951C1.00017 9.85671 1.00097 2.66695 1 2.20117" stroke="#A3A3A3" stroke-linecap="round" stroke-linejoin="round"/>
<line x1="17.1279" y1="1" x2="17.1279" y2="11.8194" stroke="#A3A3A3"/>
<line x1="8.71289" y1="1" x2="8.71289" y2="11.8194" stroke="#A3A3A3"/>
<path d="M8.2129 25.0429C7.33481 25.1725 5.15144 24.7473 5.15144 24.7473C4.00538 24.4419 4.55692 25.2943 3.67883 25.42C2.80073 25.5457 1.87648 24.9172 1 25.0429" stroke="#A3A3A3" stroke-linecap="round" stroke-linejoin="round"/>
<path d="M17.8301 25.0429C18.7082 25.1725 20.8915 24.7473 20.8915 24.7473C22.0376 24.4419 21.4861 25.2943 22.3641 25.42C23.2422 25.5457 24.1665 24.9172 25.043 25.0429" stroke="#A3A3A3" stroke-linecap="round" stroke-linejoin="round"/>
</svg>
