<svg width="26" height="26" viewBox="0 0 26 26" fill="none" xmlns="http://www.w3.org/2000/svg">
<path d="M23.9222 0.992188H2C1.44772 0.992188 1 1.4399 1 1.99219V2.66077C1 3.21305 1.44772 3.66077 2 3.66077H23.9222C24.4745 3.66077 24.9222 3.21305 24.9222 2.66077V1.99219C24.9222 1.4399 24.4745 0.992188 23.9222 0.992188Z" stroke="#A3A3A3" stroke-linecap="round" stroke-linejoin="round"/>
<path d="M23.6181 3.99414L23.1465 5.43963" stroke="#A3A3A3" stroke-linecap="round" stroke-linejoin="round"/>
<path d="M21.242 5.43963V24.0891C21.242 24.5973 21.6539 25.0092 22.1621 25.0092V25.0092C22.6702 25.0092 23.0822 24.5973 23.0822 24.0891V6.43963C23.0822 5.88734 22.6345 5.43963 22.0822 5.43963H3.71754C3.244 5.43963 2.83538 5.10748 2.73864 4.64392L2.60303 3.99414" stroke="#A3A3A3" stroke-linecap="round" stroke-linejoin="round"/>
<path d="M2.84009 5.43945V24.0889C2.84009 24.5971 3.25202 25.009 3.76017 25.009V25.009C4.26832 25.009 4.68026 24.5971 4.68026 24.0889V5.43945" stroke="#A3A3A3" stroke-linecap="round" stroke-linejoin="round"/>
<path d="M4.68042 8.99805H21.242" stroke="#A3A3A3" stroke-linecap="round" stroke-linejoin="round"/>
<path d="M4.68042 12.5566H21.242" stroke="#A3A3A3" stroke-linecap="round" stroke-linejoin="round"/>
<path d="M4.68042 16.1133H21.242" stroke="#A3A3A3" stroke-linecap="round" stroke-linejoin="round"/>
<path d="M4.68042 19.6719H21.242" stroke="#A3A3A3" stroke-linecap="round" stroke-linejoin="round"/>
<path d="M4.68042 23.2305H21.242" stroke="#A3A3A3" stroke-linecap="round" stroke-linejoin="round"/>
<path d="M23.0823 0.992188V3.66076" stroke="#A3A3A3" stroke-linecap="round" stroke-linejoin="round"/>
<path d="M2.84009 0.992188V3.66076" stroke="#A3A3A3" stroke-linecap="round" stroke-linejoin="round"/>
<path d="M4.68042 2.32617H6.06055" stroke="#A3A3A3" stroke-linecap="round" stroke-linejoin="round"/>
</svg>
