<svg width="12" height="16" viewBox="0 0 12 16" fill="none" xmlns="http://www.w3.org/2000/svg">
<path d="M11.3332 6.78658C11.3332 11.029 5.99984 14.6654 5.99984 14.6654C5.99984 14.6654 0.666504 11.029 0.666504 6.78658C0.666504 5.33994 1.22841 3.95256 2.2286 2.92963C3.22879 1.9067 4.58535 1.33203 5.99984 1.33203C7.41432 1.33203 8.77088 1.9067 9.77107 2.92963C10.7713 3.95256 11.3332 5.33994 11.3332 6.78658Z" stroke="#161314" stroke-linecap="round" stroke-linejoin="round"/>
<path d="M6 8.66797C7.10457 8.66797 8 7.77254 8 6.66797C8 5.5634 7.10457 4.66797 6 4.66797C4.89543 4.66797 4 5.5634 4 6.66797C4 7.77254 4.89543 8.66797 6 8.66797Z" stroke="#161314" stroke-linecap="round" stroke-linejoin="round"/>
</svg>
