<svg width="29" height="28" viewBox="0 0 29 28" fill="none" xmlns="http://www.w3.org/2000/svg">
<path d="M23.8332 11.8775C23.8332 19.3017 14.4998 25.6654 14.4998 25.6654C14.4998 25.6654 5.1665 19.3017 5.1665 11.8775C5.1665 9.34587 6.14983 6.91795 7.90017 5.12783C9.65051 3.33771 12.0245 2.33203 14.4998 2.33203C16.9752 2.33203 19.3492 3.33771 21.0995 5.12783C22.8498 6.91795 23.8332 9.34587 23.8332 11.8775Z" stroke="#161314" stroke-width="2" stroke-linecap="round" stroke-linejoin="round"/>
<path d="M14.5 15.168C16.433 15.168 18 13.601 18 11.668C18 9.73497 16.433 8.16797 14.5 8.16797C12.567 8.16797 11 9.73497 11 11.668C11 13.601 12.567 15.168 14.5 15.168Z" stroke="#161314" stroke-width="2" stroke-linecap="round" stroke-linejoin="round"/>
</svg>
