<svg width="28" height="28" viewBox="0 0 28 28" fill="none" xmlns="http://www.w3.org/2000/svg">
<path d="M25.6914 0.666016H1.98765C1.44219 0.666016 1 1.1082 1 1.65367C1 2.19914 1.44219 2.64132 1.98765 2.64132H25.6914C26.2368 2.64132 26.679 2.19914 26.679 1.65367C26.679 1.1082 26.2368 0.666016 25.6914 0.666016Z" stroke="#A3A3A3" stroke-linecap="round" stroke-linejoin="round"/>
<path d="M24.2444 2.64062L26.7135 5.10976" stroke="#A3A3A3" stroke-linecap="round" stroke-linejoin="round"/>
<path d="M3.5038 2.64062L1.03467 5.10976" stroke="#A3A3A3" stroke-linecap="round" stroke-linejoin="round"/>
<path d="M24.7036 0.666016V2.64132" stroke="#A3A3A3" stroke-linecap="round" stroke-linejoin="round"/>
<path d="M2.97534 0.666016V2.64132" stroke="#A3A3A3" stroke-linecap="round" stroke-linejoin="round"/>
<path d="M26.7137 5.11133L24.7384 7.58046H3.00998L1.03467 5.11133H26.7137Z" stroke="#A3A3A3" stroke-linecap="round" stroke-linejoin="round"/>
<path d="M3.00998 7.58008L1.03467 10.0492H26.7137L24.7384 7.58008" stroke="#A3A3A3" stroke-linecap="round" stroke-linejoin="round"/>
<path d="M26.7137 10.0488L24.7384 12.518H3.00998L1.03467 10.0488" stroke="#A3A3A3" stroke-linecap="round" stroke-linejoin="round"/>
<path d="M24.7384 12.5176L26.7137 14.9867H1.03467L3.00998 12.5176" stroke="#A3A3A3" stroke-linecap="round" stroke-linejoin="round"/>
<path d="M26.7137 14.9863L24.7384 17.4555H3.00998L1.03467 14.9863" stroke="#A3A3A3" stroke-linecap="round" stroke-linejoin="round"/>
<path d="M24.7384 17.457L26.7137 19.9262H1.03467L3.00998 17.457" stroke="#A3A3A3" stroke-linecap="round" stroke-linejoin="round"/>
<path d="M26.7137 19.9258L24.7384 22.3949H3.00998L1.03467 19.9258" stroke="#A3A3A3" stroke-linecap="round" stroke-linejoin="round"/>
<path d="M24.7384 22.3945L26.7137 24.8637H1.03467L3.00998 22.3945" stroke="#A3A3A3" stroke-linecap="round" stroke-linejoin="round"/>
<path d="M26.7137 24.8633L24.7384 27.3324H3.00998L1.03467 24.8633" stroke="#A3A3A3" stroke-linecap="round" stroke-linejoin="round"/>
</svg>
