<svg width="24" height="26" viewBox="0 0 24 26" fill="none" xmlns="http://www.w3.org/2000/svg">
<path d="M21.6 1H2C1.44772 1 1 1.44771 1 2V24C1 24.5523 1.44772 25 2 25H21.6C22.1523 25 22.6 24.5523 22.6 24V2C22.6 1.44772 22.1523 1 21.6 1Z" stroke="#A3A3A3" stroke-linecap="round" stroke-linejoin="round"/>
<path d="M19.15 5.80078H4.44995V22.6008H19.15V5.80078Z" stroke="#A3A3A3" stroke-linecap="round" stroke-linejoin="round"/>
<path d="M19.1498 17.8008H11.7998V22.6008H19.1498V17.8008Z" stroke="#A3A3A3" stroke-linecap="round" stroke-linejoin="round"/>
<path d="M19.15 15.4004H4.44995V17.8004H19.15V15.4004Z" stroke="#A3A3A3" stroke-linecap="round" stroke-linejoin="round"/>
<path d="M19.15 13H4.44995V15.4H19.15V13Z" stroke="#A3A3A3" stroke-linecap="round" stroke-linejoin="round"/>
<path d="M19.15 10.5996H4.44995V12.9996H19.15V10.5996Z" stroke="#A3A3A3" stroke-linecap="round" stroke-linejoin="round"/>
<path d="M19.15 8.20117H4.44995V10.6012H19.15V8.20117Z" stroke="#A3A3A3" stroke-linecap="round" stroke-linejoin="round"/>
<path d="M11.8 17.8008H4.44995V22.6008H11.8V17.8008Z" stroke="#A3A3A3" stroke-linecap="round" stroke-linejoin="round"/>
<path d="M20.1999 3.40039H3.3999V5.80039H20.1999V3.40039Z" stroke="#A3A3A3" stroke-linecap="round" stroke-linejoin="round"/>
</svg>
