<svg width="26" height="26" viewBox="0 0 26 26" fill="none" xmlns="http://www.w3.org/2000/svg">
<path d="M23.552 18.3735C23.552 18.2584 23.5976 18.148 23.6787 18.0666C23.7598 17.9852 23.8698 17.9394 23.9846 17.9394C24.0993 17.9394 24.2093 17.9852 24.2904 18.0666C24.3715 18.148 24.4171 18.2584 24.4171 18.3735C24.4171 18.4886 24.3715 18.599 24.2904 18.6804C24.2093 18.7618 24.0993 18.8075 23.9846 18.8075C23.8698 18.8075 23.7598 18.7618 23.6787 18.6804C23.5976 18.599 23.552 18.4886 23.552 18.3735ZM23.552 17.0713C23.552 16.9562 23.5976 16.8458 23.6787 16.7644C23.7598 16.683 23.8698 16.6373 23.9846 16.6373C24.0993 16.6373 24.2093 16.683 24.2904 16.7644C24.3715 16.8458 24.4171 16.9562 24.4171 17.0713C24.4171 17.1864 24.3715 17.2968 24.2904 17.3782C24.2093 17.4596 24.0993 17.5054 23.9846 17.5054C23.8698 17.5054 23.7598 17.4596 23.6787 17.3782C23.5976 17.2968 23.552 17.1864 23.552 17.0713ZM23.552 15.7692C23.552 15.6541 23.5976 15.5437 23.6787 15.4623C23.7598 15.3809 23.8698 15.3351 23.9846 15.3351C24.0993 15.3351 24.2093 15.3809 24.2904 15.4623C24.3715 15.5437 24.4171 15.6541 24.4171 15.7692C24.4171 15.8843 24.3715 15.9947 24.2904 16.0761C24.2093 16.1575 24.0993 16.2032 23.9846 16.2032C23.8698 16.2032 23.7598 16.1575 23.6787 16.0761C23.5976 15.9947 23.552 15.8843 23.552 15.7692ZM23.552 14.467C23.552 14.3519 23.5976 14.2415 23.6787 14.1601C23.7598 14.0787 23.8698 14.033 23.9846 14.033C24.0993 14.033 24.2093 14.0787 24.2904 14.1601C24.3715 14.2415 24.4171 14.3519 24.4171 14.467C24.4171 14.5822 24.3715 14.6926 24.2904 14.774C24.2093 14.8554 24.0993 14.9011 23.9846 14.9011C23.8698 14.9011 23.7598 14.8554 23.6787 14.774C23.5976 14.6926 23.552 14.5822 23.552 14.467ZM23.552 13.1649C23.552 13.0498 23.5976 12.9394 23.6787 12.858C23.7598 12.7766 23.8698 12.7308 23.9846 12.7308C24.0993 12.7308 24.2093 12.7766 24.2904 12.858C24.3715 12.9394 24.4171 13.0498 24.4171 13.1649C24.4171 13.28 24.3715 13.3904 24.2904 13.4718C24.2093 13.5532 24.0993 13.5989 23.9846 13.5989C23.8698 13.5989 23.7598 13.5532 23.6787 13.4718C23.5976 13.3904 23.552 13.28 23.552 13.1649ZM23.552 11.8627C23.552 11.7476 23.5976 11.6372 23.6787 11.5558C23.7598 11.4744 23.8698 11.4287 23.9846 11.4287C24.0993 11.4287 24.2093 11.4744 24.2904 11.5558C24.3715 11.6372 24.4171 11.7476 24.4171 11.8627C24.4171 11.9779 24.3715 12.0883 24.2904 12.1697C24.2093 12.2511 24.0993 12.2968 23.9846 12.2968C23.8698 12.2968 23.7598 12.2511 23.6787 12.1697C23.5976 12.0883 23.552 11.9779 23.552 11.8627ZM23.552 10.5606C23.552 10.4455 23.5976 10.3351 23.6787 10.2537C23.7598 10.1723 23.8698 10.1266 23.9846 10.1266C24.0993 10.1266 24.2093 10.1723 24.2904 10.2537C24.3715 10.3351 24.4171 10.4455 24.4171 10.5606C24.4171 10.6757 24.3715 10.7861 24.2904 10.8675C24.2093 10.9489 24.0993 10.9946 23.9846 10.9946C23.8698 10.9946 23.7598 10.9489 23.6787 10.8675C23.5976 10.7861 23.552 10.6757 23.552 10.5606ZM23.552 9.25845C23.552 9.14334 23.5976 9.03294 23.6787 8.95154C23.7598 8.87014 23.8698 8.82441 23.9846 8.82441C24.0993 8.82441 24.2093 8.87014 24.2904 8.95154C24.3715 9.03294 24.4171 9.14334 24.4171 9.25845C24.4171 9.37357 24.3715 9.48397 24.2904 9.56537C24.2093 9.64677 24.0993 9.6925 23.9846 9.6925C23.8698 9.6925 23.7598 9.64677 23.6787 9.56537C23.5976 9.48397 23.552 9.37357 23.552 9.25845ZM23.552 7.95631C23.552 7.84119 23.5976 7.73079 23.6787 7.64939C23.7598 7.56799 23.8698 7.52226 23.9846 7.52226C24.0993 7.52226 24.2093 7.56799 24.2904 7.64939C24.3715 7.73079 24.4171 7.84119 24.4171 7.95631C24.4171 8.07143 24.3715 8.18183 24.2904 8.26323C24.2093 8.34463 24.0993 8.39036 23.9846 8.39036C23.8698 8.39036 23.7598 8.34463 23.6787 8.26323C23.5976 8.18183 23.552 8.07143 23.552 7.95631ZM23.552 6.65416C23.552 6.53905 23.5976 6.42864 23.6787 6.34724C23.7598 6.26584 23.8698 6.22011 23.9846 6.22011C24.0993 6.22011 24.2093 6.26584 24.2904 6.34724C24.3715 6.42864 24.4171 6.53905 24.4171 6.65416C24.4171 6.76928 24.3715 6.87968 24.2904 6.96108C24.2093 7.04248 24.0993 7.08821 23.9846 7.08821C23.8698 7.08821 23.7598 7.04248 23.6787 6.96108C23.5976 6.87968 23.552 6.76928 23.552 6.65416ZM23.552 5.35202C23.552 5.2369 23.5976 5.1265 23.6787 5.0451C23.7598 4.9637 23.8698 4.91797 23.9846 4.91797C24.0993 4.91797 24.2093 4.9637 24.2904 5.0451C24.3715 5.1265 24.4171 5.2369 24.4171 5.35202C24.4171 5.46713 24.3715 5.57754 24.2904 5.65894C24.2093 5.74034 24.0993 5.78607 23.9846 5.78607C23.8698 5.78607 23.7598 5.74034 23.6787 5.65894C23.5976 5.57754 23.552 5.46713 23.552 5.35202Z" fill="#A3A3A3"/>
<path d="M24.8733 21.7841H23.1111V20.9135C23.1111 20.6826 23.2039 20.4612 23.3692 20.298C23.5344 20.1347 23.7585 20.043 23.9922 20.043C24.2259 20.043 24.45 20.1347 24.6153 20.298C24.7805 20.4612 24.8733 20.6826 24.8733 20.9135V21.7841Z" stroke="#A3A3A3" stroke-linecap="round" stroke-linejoin="round"/>
<path d="M23.7999 4.48228H1.96436M1.96436 1H23.7999" stroke="#A3A3A3" stroke-linecap="round" stroke-linejoin="round"/>
<path d="M4.6936 1C4.46196 1 4.2398 1.18344 4.076 1.50997C3.9122 1.8365 3.82018 2.27936 3.82018 2.74114C3.82018 3.20292 3.9122 3.64579 4.076 3.97231C4.2398 4.29884 4.46196 4.48228 4.6936 4.48228" stroke="#A3A3A3" stroke-linecap="round" stroke-linejoin="round"/>
<path d="M23.7998 1C24.0315 1 24.2536 1.18344 24.4174 1.50997C24.5812 1.8365 24.6732 2.27936 24.6732 2.74114C24.6732 3.20292 24.5812 3.64579 24.4174 3.97231C24.2536 4.29884 24.0315 4.48228 23.7998 4.48228" stroke="#A3A3A3" stroke-linecap="round" stroke-linejoin="round"/>
<path d="M1.87329 1C1.64164 1 1.41949 1.18344 1.25569 1.50997C1.09189 1.8365 0.999868 2.27936 0.999868 2.74114C0.999868 3.20292 1.09189 3.64579 1.25569 3.97231C1.41949 4.29884 1.64164 4.48228 1.87329 4.48228" stroke="#A3A3A3" stroke-linecap="round" stroke-linejoin="round"/>
<path d="M21.0701 1C21.3017 1 21.5239 1.18344 21.6877 1.50997C21.8515 1.8365 21.9435 2.27936 21.9435 2.74114C21.9435 3.20292 21.8515 3.64579 21.6877 3.97231C21.5239 4.29884 21.3017 4.48228 21.0701 4.48228" stroke="#A3A3A3" stroke-linecap="round" stroke-linejoin="round"/>
<path d="M21.6693 4.69922V23.9993C21.6693 24.5516 21.2216 24.9993 20.6693 24.9993H4.28589C3.7336 24.9993 3.28589 24.5516 3.28589 23.9993V4.69922" stroke="#A3A3A3" stroke-linecap="round" stroke-linejoin="round"/>
<path d="M3.28589 21.7852H21.6693" stroke="#A3A3A3" stroke-linecap="round" stroke-linejoin="round"/>
</svg>
