<svg width="23" height="23" viewBox="0 0 23 23" fill="none" xmlns="http://www.w3.org/2000/svg">
<path fill-rule="evenodd" clip-rule="evenodd" d="M11.2002 22.4062C17.2753 22.4062 22.2002 17.4814 22.2002 11.4062C22.2002 5.33112 17.2753 0.40625 11.2002 0.40625C5.12506 0.40625 0.200195 5.33112 0.200195 11.4062C0.200195 17.4814 5.12506 22.4062 11.2002 22.4062ZM14.9013 6.61032C15.2139 6.48481 15.5163 6.50817 15.7088 6.67141C15.8468 6.78819 15.9896 7.02587 15.8869 7.493L14.2042 16.2394C14.1901 16.2759 14.0551 16.5975 13.7175 16.7361C13.6185 16.7766 13.5148 16.7969 13.4067 16.7969C13.2668 16.7969 13.1203 16.763 12.9673 16.6953L12.9137 16.6632L10.6609 14.9063L9.2654 16.2007C9.14117 16.2982 8.94918 16.3662 8.75617 16.2918C8.53621 16.2248 8.4107 15.8993 8.3337 15.6517C8.21973 15.2849 7.73528 13.6719 7.54233 13.0295L7.50056 12.8904L5.21802 12.1089C5.16104 12.0881 4.69442 11.9079 4.64103 11.4729C4.58123 10.9903 5.16181 10.7737 5.22829 10.7506C5.59378 10.5933 14.5725 6.74225 14.9013 6.61032ZM8.74359 15.2564L9.51359 13.2031L13.8769 8.3264L7.97359 12.6897L8.74359 15.2564Z" fill="#CECECE"/>
</svg>
