<svg width="22" height="22" viewBox="0 0 22 22" fill="none" xmlns="http://www.w3.org/2000/svg">
<path fill-rule="evenodd" clip-rule="evenodd" d="M11 22C17.0751 22 22 17.0751 22 11C22 4.92487 17.0751 0 11 0C4.92487 0 0 4.92487 0 11C0 17.0751 4.92487 22 11 22ZM14.7011 6.20407C15.0137 6.07856 15.3161 6.10192 15.5086 6.26516C15.6466 6.38194 15.7894 6.61962 15.6867 7.08675L14.004 15.8332C13.9899 15.8696 13.8549 16.1912 13.5173 16.3298C13.4183 16.3704 13.3146 16.3907 13.2065 16.3907C13.0666 16.3907 12.9201 16.3568 12.7671 16.289L12.7135 16.2569L10.4607 14.5001L9.0652 15.7944C8.94098 15.892 8.74899 15.96 8.55597 15.8855C8.33601 15.8186 8.2105 15.4931 8.1335 15.2454C8.01957 14.8787 7.53532 13.2665 7.34227 12.6237L7.30036 12.4842L5.01782 11.7026C4.96084 11.6819 4.49422 11.5017 4.44084 11.0666C4.38103 10.5841 4.96161 10.3675 5.02809 10.3444C5.39358 10.187 14.3723 6.336 14.7011 6.20407ZM8.5434 14.8501L9.3134 12.7968L13.6767 7.92015L7.7734 12.2835L8.5434 14.8501Z" fill="#161314"/>
</svg>
