<svg width="16" height="15" viewBox="0 0 16 15" fill="none" xmlns="http://www.w3.org/2000/svg">
<path fill-rule="evenodd" clip-rule="evenodd" d="M8.59766 0.50635C8.48535 0.278814 8.2536 0.134766 7.99986 0.134766C7.74611 0.134766 7.51437 0.278814 7.40205 0.50635L5.49702 4.36574L1.23677 4.98844C0.985731 5.02514 0.777278 5.20114 0.699026 5.44248C0.620774 5.68382 0.686289 5.94865 0.868035 6.12567L3.95018 9.12768L3.22278 13.3687C3.17989 13.6189 3.28272 13.8716 3.48803 14.0208C3.69335 14.17 3.96555 14.1896 4.19016 14.0715L7.99986 12.068L11.8096 14.0715C12.0342 14.1896 12.3064 14.17 12.5117 14.0208C12.717 13.8716 12.8198 13.6189 12.7769 13.3687L12.0495 9.12768L15.1317 6.12567C15.3134 5.94865 15.3789 5.68382 15.3007 5.44248C15.2224 5.20114 15.014 5.02514 14.7629 4.98844L10.5027 4.36574L8.59766 0.50635Z" fill="#FCBF87"/>
</svg>
